<mxfile host="app.diagrams.net" modified="2024-01-23T06:28:35.348Z" agent="Mozilla/5.0 (Windows NT 10.0; Win64; x64) AppleWebKit/537.36 (KHTML, like Gecko) Chrome/120.0.0.0 Safari/537.36" etag="YC3O5Dleot8r_jcFkPE_" version="22.1.21" type="github">
  <diagram name="페이지-1" id="pCHGzFSRrwRt8wxoM6YM">
    <mxGraphModel dx="2625" dy="1325" grid="0" gridSize="10" guides="1" tooltips="1" connect="1" arrows="1" fold="1" page="0" pageScale="1" pageWidth="827" pageHeight="1169" math="0" shadow="0">
      <root>
        <mxCell id="0" />
        <mxCell id="1" parent="0" />
        <mxCell id="PHb7f1i5PLg08WZEu7bd-1" value="" style="shape=image;verticalLabelPosition=bottom;labelBackgroundColor=default;verticalAlign=top;aspect=fixed;imageAspect=0;image=data:image/png,iVBORw0KGgoAAAANSUhEUgAAAVcAAABwCAYAAACq7zMiAAAAAXNSR0IArs4c6QAAAARnQU1BAACxjwv8YQUAAAAJcEhZcwAADsMAAA7DAcdvqGQAADBkSURBVHhe7Z0HgFTV1cfP1O2d3YWl4y699yYioqiJ+dBoYgm22BtookZjjMRekFiCxo6oib0bEUUEERDpvSx9gWUrsHXqd/7nvdmdtm12Zlng/obHzitz363/e+59995ncDOkUCgUirBi1P8qFAqFIowocVUoFIoIoMRVoVAoIoASV4VCoYgASlwVCoUiAihxVSgUigigxFWhUCgigBJXhUKhiABKXBUKhSICKHFVKBSKCKDEVaFQKCKAEleFQqGIAEpcFQqFIgIocVUoFIoIoMRVoVAoIoASV4VCoYgASlwVCoUiAihxVSgUigigxFWhUCgigBJXhUKhiACt7gWFbv54vjldTv37scdoMMoG/xlUnaRQKBqg1YirxxtHbaX0876vaXnePKp0HuETLvalnGpxxEu8GYxGMpOVeqcNo5Fdfk3tE7JFZCG2CoVCEYxWI642p40+3/wSrc6fT0eqimuErdXAAg+NNxot1LPNEPp192uofVK2dk6hUCj8aAXi6qaC8v305prptKd0K3vISC62ViFkrUlbpTtALGhYqwaKtybQhX2m0sC2p7HgmnBCoVAoajjm4nq4qpD++dNNVFxZUNM1cDxgJBMZLG66fvAT1IMtWYOmvAqFQiEc807Dd9c/SUUVx5ewAhc5yW130azlf6KSqkP6UYVCodA4ZuIKMd1UsJw2HVqBHf3o8YWLN3RjzN02WzugUCgUOsdEXCGsLreD3l//NDlddu1J0fEK1wvL8r6ibYUrjjvrW6FQRI5jJq4YalVYdYD3Wtujq6aBB11cT9D/tr7J32DLKhQKxTEQVwgrHmL9Z91TZHB6TNbj+2GQ2+im3CNraEXet8p6VSgUQouLK56q/7D7Q76x2Hz60eMct0Gs1y+3voYdJbAKhaLlxXVP6WZasPMDcjlPPAEqqTxEX219U99TKBQnMy0mrrDm8PliyyvamgER7wngG/iMPY181wMM1q+3vUaFFXnKelUoTnJaTlzJResPLaVNh34mzGeKlPQYdBGtdlZQclQb6ps5klKiM6nSUSbHI43JaKF5ue9I94cSWIXi5KVFZmjBYsWU1kcWTqGCsv2RU1YGoobPVYOnU++M4WQ2WcnhstO2wlX03JKpZDFF61dGAk1QWV/ppiEzqEf6EP24QqE42WgRyxVi9+PuT6iw7EBEhRU4HHY6M/syGtDuVBZWVjm+n9lgoV7pw+n8PreK0EcObf0BPNz6avtrXKG0niUTFQpFyxJxcYWY4UHPB+ufaXYzWWvw19936nTbqV/mWJFQrLsqliwUj/+N6HC2XMNH5W8gOF6/+40BLuwsWk8/753LYVZjXxWKk5HIW66sct/u+A8LTvNEC793sElod1azgDo1wQyCi28YbY7jb4FCbjKZxRfuID8V9102srvgvkP2Q0WEnf03d8fr/L15FYpCoTg+iai4wlLdVbKBFu/5lKUqtFtp0gSJctNFfafRtDHP0q96XElOFwSwLuoQND4sxrOXuhr0g1aTlaYMuofuHf8G/a7vHWRBl4KOXF2Hk3WB+5RWFtJnm1/VjygUipOJiIkrxFCst9zZ5HbBnmyiOgkGcrGIdkzqQfdPeIfGdbmAuqcNprNzrqQ7xrzAlqZDv645mCjaGs+iPYtGdDiHOiTk0KmdJ9Pd417n+3aXZr34PARD1ulw0/wdb1FRBab5KhSKk4nIWa6sSKsOLKAN+cvkTS2hAGHtlzmabh45g9Ji2pJR+k/RY2qkLsm9qGf6kGY/NEIf7eB2p1NWYjd234T2PBmNBmoTl0VTRz9LOSzmbnRD6Nc3Cf6RwW2iL9h6haWtugiajtZmCf45mcHoG++4qP2oPv7WQsSGYkH0pn93MZVUFfJeKLdws4D2oVtHzZThVFCqWoHjTMTefnvtE7Rk9xdkMpr140RVjgp6aOKHlB7fwf8XVG47QvfM/Y2IqCcTog93cu8b6aycKT7Xa8DfBnp2yVTaWrCCDEZTkGvqB90O6IW4cdhTXBkMrbOvWBGcb3e+TTZHNX+rzUNI+3hrCo3rfL5Uticjq9lwyTuaC1ugBuRNqzmGJnT5vban8toxJSI5E0L2w44PZZSAdD42Efw+OSZdLFaz0SpyJn2jOnASY1dzC1ezldm8IFhNUbSl4Bf5rgmul39ZFV38uWH449QpuWdomRWWsNtMc3Nf03/f9Pg4GUEeAD/t+Yzmb/8vfbetdpuf+y4t3ftVzTUnI8iz83N94+U7jpfFuz+TeFG6euwJu7giYUtZVD/b9qImJk1KZNS9BoqzJtLto2eRhYVPEyRtg8WCPlC8BeB/W2dTQUUeH21eEGBVbitaTZ9snMVmvHaPGvickT/wx5WD/04WI/tH/NJ44Bz8m1u8gRbt+oSPNO33Jztug5tsTjvZuTL1bOhrd7Si164fC5xcDhzcOvSJF6eNjCaVv1blf08vr7qHXl7tta3E9heqsB8VDWkJwi+urCZzt80hp93pK1SNAgWpmi7ofYtYrpqQeYudgaodlTR75UMsrq+RCX2kzYTLrrw6e962d+jfv/yVqp2V+pla4I/0uA50FQtstatKP9o0jG4TzdvxtnRDKBSKyFFwdB+tz1tK6/Ytqdmwv/7AUm1x/hYirOIKq3VnyQb6affnIoSNb0bDIoWEGWhQu/E0rMNZYkV6rFa4iya7g4Xp1RX3y7qpFnM0H2s+4gb/ZzFbacPBxTRr2Z1UaS8jl1fF4PmGWV6900eGUGnADReVlufTV9teJxdbXaG4cTKCPGA2m6X7x7PhmFEZaIpWTngtV9aL/21/tUZUmyIfaM1gcZXzel3LP2Qx9S487BCejj6/7E+06dAy7QFWmLUJYgd/7yhaR3NWPyKF13MLeAVBwsOTPw6dLmNiPWFsCga2tBfsfpdKqwpC+v1JhR75XRL6Ue82w6kPV2o1W8Yoyk4dwGdVHCpaL2ETV9iWy/d9Q9sL1+pHmgCLFvqQxne9iDLjO4mIeRcbfF+w40PKLV7LlkvtyIBwg/JsNJpozYEf6Outc8RmhtBrwFoyUJwlkQZlTWAruqnNC90Cdxrok03/UpZrA3gqn0v7301XDn6ArhoyvXbj/Qv63MrpEfZeLYUibIQpd3Kj1+30mjDQRFho8PuJp1wiwuoNBGnvka308cbn2bMtU5jMpij6NvcdKizPIxc6ZWuAQLpoQrffkVlEvumWk4vjZ9XBBbSxYJl+JHQg0PggljBlt9x+hMpspXS0ukQ2m7OKj6MLgtMEG/vdn5pz/pu4q8U/9rEGL7pLPG7bXTY5jhZFffi46b3p7gNPOOSjn/eAfvVgm4xJ9sP79/6bB82/HF8ue01YEG8ybhQbfxqD+Fm/Hv3o3vGOMc26b7SPx22vDecjiRan3v7T/FbpKJdj4g/+NBZPeFFO4Z4nrNiq2E3kM8QhzuPapuBJE/zFMxdvt6WLDuGAf8Xdut2uDVOQa7ioeh5+14Tfa4sEYRnnCs9+s+1t+nLrK3g0zgJZXxQEgsBlJnShv4x7jUULhUYTLU8kvLT8r7Th0BI+2rCYNXWcazDwK2SW7LSBdNuof/K+1s/nzXNLbqetRasa4aNA4K9OKT1p6qhnWSjMAW43Boh0lbOM8g5vp00ly2hH4Xo6ZNutPzDj2Gc3Ew3plBrblrLbDKAeKUO5VdCZYixYd0G7HwrC/F3vks1dhUSQYwD+65LYl3q0GSoCvb1oDf2071PaUbyeXCZ2n/NosqE99Ws3mka2P5fSYrPqtCIX7vmQyuyl+p4G0iI9qhMNaz+R97BmhJ2KKw7QlsJfqMxZKsPvJna5VNJp0d6P6aitWPuhDnyaZs2ikR3P0Q4IblqX/xPtObopID6txhia2PVSKbx4f9vyA1/T2gOLKd+WK46Z3VHUNbkfDc06WyatWPj+DYHKJb9sDy078BVtPvgLlTj3a7HK/7WP7kW9MofQoIwzqKByH+06ulEenNbA/kuJyaBR7X6tH2g676x5gpblfS3GjAe0rNoktqN7x86RON5/ZCf9cmAubcxfTqXsP3gimhIpJ20QjenwG+qU3KtRYUU+Kao4SNtLVtEmNgoOHtlDpa79fG8OFCe70R5N7RO6cZhHUHbKQJnZaMa6m40AwllaWUA7S9fR2oOL6MDRXRKXyI/IhyYXu52Yw2VxAOUks9vJPbRRRFps14B8On/vf+QNJ7lFa2nbodX6GQ1cjzg5s8cl0jr1+T3H26ntz6f4qGTf480kLOJaUplPf19wEStSaJYlhtVcOuDPNKbzeRy0WjeQqHgtzJOLruMItfJ+w14Nh7gC/BYJ9tCZH7F4tJUjArzAX/HQbvaqh2TQdlOTQ+xfzui/7XUrndb1whDE1U0r98+nDzY+SzZDObmqDJqF6hcmrXtF+2Atmyh3PE0bMYvD007Cgfh99IcrqLiykDOC/lt4xW2gM3IuoVEdz6XXV0+n/ZVbCYMoxCLTvYqCjJ3o6Gi6asA/KDt1oM9kDoA4n7HoetrPBYYzmn4UBYpocPvx3OTH0JhSemPlg7S7Yh2hXsCMtmhrHD048X2peGb8eCPt5wrEG9gn/duOpauGPKAf0e71+aZ/04Id77OvavMQimhKbDrdN34Ox9n39N7mp6i62iaVk0SCjpHvZbK4qUfqcLpmyEM1cecP7oN4e2/dTFpV/A05ytFqQNzXuoX7m4wc57FmsthiqdJZTgYIkQ66trq06UU3DZsR9B6NoT5x/cuY2dLSW3bwK3JWsc8MsCq1++NBMcQFyxqPbjeZJve6iX8XvNzCsEHY4NbP7JbLzlLIt0PcYYicB7gJgUKWsMQYqVNMf7pm6IMUbY6tM2+LxcifudvepG93vS1uGlwmyWM+cYnfw8/sR+ThrKieNGXAvZQqMzZr/V3BZXv6DxeTw+5gPzs4vLXx4g10hE/qe0hPzd93j3uV2sS1rzMuQqGZLmme/HLLa6yQoTploChzNBe2CRKJtbg5oGy57PqUA2+qM7IiBRIYNeS8bW/xXq2/kKlQH52S1l/8hzqwqbg42rn40fdsNaKgNgVMnnhz5cP09rrHqaL6CNmrnGL5BasskIHhPjJbdZmTqt3lMpTNU5/iLwoPxkfa2Q3ZMF6S7DJI/eklN9Ke4k1kq9AyrHdQUViRJpVVlfTa6vvpUEUeH63NtB7cRnQp6G7rm4sLO+79S9439MjCK9kiWkO2SvYnV7IIC5cy/deIb26Gev0WG/ta4sEHPSz4eF/rcNvI5qqmN9c+RHPWPETVVdVckBHnvn51cfjsNqd013yyaVadqQoxfHHFnbRs31dUXe5g9wOnNSMtYDBUl9uku8AnfsVPdjIYA+OqucDF8qoymvHTDfTT3s/JVsXpxqnpM/KF8y/S0s7xvXD3R/TB+n/qZ3xB3jlSXUwzl9xEi/ewW9VYkQ55idPOS1iBlAkOszTrK5yUW7KaHv7xMtpdurEmr3mDq3H8+Z9vp7m5b5KD493pQJwhbf3c5uvgNvxs4zy8u3gDPbX4etrArRQfTeAEM1mN0qKoTyvsfmmh5U1bwH3DQbNlenPBCm56fMMRrB9oIqiZUmLSKdac4FfLsX3HkbSlcLn0sUnstTC44895c7lZimatFvliafC/lJhMykrsyt+bHoXSQOFMgybq++tnSjgby/c736XVhQvIbkcm0txpHLiOPd6Ie8HNXVwwDlcW+xTMYODaqupKemnlXVTNln5jgLWVW7KWPtj8DFscZVrzMoIc4Xhemfc9i6pWIdSHy+miXw5+Qwe5ya9Zt7Wgopq96kHayk1OuNVQ3ON8JAptXeB+lbajbOnnkpPDwUe0E0GAvySsB+bRwaO7fcKC76hkX197v3Q7iaXaQFg9iLt8/dHyw1zp/o0Ole+RY7W4uYKvoGeX30a5heukGd/YOBK3EcbqMnpr3cOcRrsa/dtjQcjiisiGCT9322yJoFClD4uztItnkWK8Iwrf847u4NqzxOd4S4L7lnFzo7Bsn48PILCYNts1pQ9f1Hhh9MftMkjTrqB8n36kbiDAuO5rbkY5bIGrgaFiapvYmfq2HUX9242h/lljqX1SN4qyxMg5qRQ4zRobkyhL0kTi31rMFjJjLVy441MBaiAvlJQfoq2Fq/QjDVNSUcDN8yrxj9HEdryZWwG8ocs9yC2aBcKCDU19E98A4UETuq6p05W2cun/8z6P+Ed/4LqCRUGTHPFiNUdJ/zbiH+mQlaTl65YE4iNdGuwfhFXSjY/XFdZqexW9u+5p2Ib6EeCWGYu7CjdLJeIN3EXTOrtNfw7nWOrddjjFRSVq+csL5LTDFSX0wcZn2I1at+Hacm6x7C7erO14ATcw3rxrWh9xG336iTGpck9v4HYl552XfrmHquzl+lGG3cPvTXWEFSA+fDYz/jauf7ip1O2LBkCAl+6dSzsPhzD0ygs0BfCgBfiXqW1FK/l8OJYVDBWtr2ff0e2S8N6gsHZM7M5NitD9h0zi5ubQe+uf5m/1izQKzM6S9dzMDrwfpjxiDdp7Tn2Drhv6KF0z5GG6ZvBDdNepr9IjEz+hs3OuoNTYDOlrw9YYLFEm6pbSl24c/gTNOHsezThnHl3Q61aKtfq3MDTYqOP88KWIUGMwsRvWKCslx6ZQp8Re1Cd9NPVpM5o6JvRikQrze87YuwkxSRIPD038WMJz26jnqG1C54B0BS67m3aUrNP3kNZapfTNjtnk4PSSUuwNhyUruSv97fT/0K0jZkr8Ix3uGvsqdW8zJGh8RQqIaHpcO7qw7zQJ69OcbjePmslh7SJ5yB+EZF/5Jiq3HZY8iJDiucWq/O/EsvXFIA9Ebx/9PN068hnpm75h6BN032lvaSLoF5eIt9zSNbS58BdxF3dDN8nnm1+SbgDtWC1mq5muHjydbh/1L3H7Wo7H+06bQ51TesksSl/cVGoroHX5P8p9Yi2J9Mj4Lzhtv6Fzul8V4BdtUhLR9AnvyTVPn/OtbMjXT3N+wBDQcPa3gma5tnD3+zJuM1TwSyRoWmymdsArQhA5e0q2cID1A8cIPPU8eCR48yOZBQvWe7AC2ljwYAtPYXcUrZfmVF3g/sUV+Zzh9QNeGDiSOqdgYRn9gA78hX7jSTmX01/GvUGX9b6XEqJSxGqrDxTQ0Vn/x8L6JPVKHyrH4Nap3SaLcAQLrpvd3FGyQWtpoOapB7iVycI2ddhzXCHMoamjnuFC9QBdPeQBmjr6Gbpz9KvsR1OD7jQG3AvdTn/l+5zd/XJZtwJ0S+1DU0c+R0mJSXyFXzHgXYfRdxr0kaoi2lC4lK1W3wRAoY1iS+76IY9TEsetv4B5P3CKNEjXtIRM+vPYV2hsp/P0sBooJ20A3TH6BeqUkqNd6AUeNOKJ/QHO4+jbQ5z/tOcLqqhmi9A/P3HQzu1+NbVPzJZ49RDHFS4EMT4uQT9Si8PupHm5b+nXG2hj/jJ5UMw31i4A7G/4/dxT/sj5bYR+ECBuY+iKgffxJYF5wc2V4JIDX+JbWPJKuAlZXDFurqhcH34SKhyh+CREpQaIFyLrcDWWK2zWHZoNajP0jQYjxhzHvm5+4XG5ONMVLBNRqy+TyNP4INHhtLvozTUP0vc7PtDFzWMVaBssJ3Rj9Ms4lRKsKXys/jhFn3C0JZbvh+ZS7bV4DIeukH4Zo/UjXrCIVLvKqKQqn3/dQJywfzD0LispW54oQ0g9G0YIIF7F62ECS1bGWOI5JL7hjjLHULQBAhR4M4eztoWA+Cuo2MdfAq0tOHlat4soKbqNtnMsYa8hjBhe5W0to/JA+o/tODlgYReEBuuAHCzXDAj0K685+IPP7wHcxQSa4R0m8Tm/CoQdwZC/tjHdpKL3gc+VVB4Ut5G3t3Br1L8fH7ppjrLQoKzxfBdfcK/U2HbUP+M07OhHNeDMvqJcKqw4IO63NkISVwRkR/FGqnbauBg1I1DyU042jjT/SMXJ+iy5uqhxycdb2o6kDW9+aVQ3nOpwD0+bA2A3orjANif4NbAbucWr9TGqwYGX2yV0rfP52cEje+mTzbPo799fSM8vn0bvbnqSFuz+gN1lixhtdsa/wIQC4mMQRnb4w06brAZ5wqz5th5wmiuUmoFiXv6SvBAGf3oTrODhCO6daGZRbEQpKOFWA55qewN/mqIMlJ0yQNw65jTgBSybaTIHCazbRIWVeRJPNkclFZTlcdnzjTO0TNA60t5P5wviARVqh4TuZPJflYudqXCWaaM7+FRxZZA3QPPxGHcii3cSHNMP+jKiE0Td7xxU2WqX1fFaQ/T7E5K4osrILVrDPw7t57V4YhmJE0g9/dJ1ggQorsxnF71jG9/dVF59RPYa3YSQIRBueTV3AOyEw/N0vNkJy5ZR+T6936suvxmoU1IPtuoS+FuQG3KY8NTd6XDStoJ1tCT3a/p0wwv00vo/0ZMLr2WRXVMjss0B8Zse057/BiYO+uhQOFuF0DQChAXWK9480RDlWKrO6Zc2vGuymMRqrTvdWgtuSuQWotM/DAw0q4xbPEg3zJCqojKfVjvgNhW1iW+v7wWCMpUSm8l5TD/ghZNbASUsqnC/zFYsf31gD2AAf7DJAR5SojI0tfFzH138ZVyht9TszaYQso9k2E0zyxA0DjUeRE8GInuhZfwEPh8kteoBTzIX7vqIHUATh+1qFhR5yMLO/HetNmi7KW6iCYOnocFAx7/EQdO8GBQ8uMMYwvpA98nFfe4ka0wDU28htByvTrb8q47Ypcn3wso76fNNrzQp7HVhNUXLk/1gTkkfNEpra4f9Du8jLI31rX9wsY86Bt0ZweKitYEKEZM0/Msa8AxRw3jS6Hhz0KGV6FqojxhLrFTw/kB4S6qK5HuVsyJIVLkbnKmILjF5qOVXEWIkQrm9TN9rXYQkroiErsm9NNFqDnqzu7T6kGiFt0WJb92Se+OgdqCRoLG59uCP9MKyu+jA0Z0sgFXyF0sVbinS3jjQFDDIuG18F33PG7c85DCjYDUT5Kk2ce206Xf1ZDCc65s+iv7Q5z5KS0wTq6khIROZ5QzvqHbSorwP6Ze8eT7xHApo4rmcwSsCTPgIh4C3FP4D4usCfe/+cY09WLN4HfvxgsurL9kbES/5ZpAn+cFzVf15Dd14dUWnp/UnFVEQkGfqd12/e4B4GwhTeVojIVuumOtrMrEF1axyhLF4Fm4SY3aPb9Lhe9fUfnUmRn2gIGwoWEaPL/wjPbxgCj2x6FpZ6Spo874BYIllJZzC/vFLei5o+1m0TcaoZosJKqlOSb3lyWhdzSIPGErVL/NUmjr8BTo7+wrKyegvD8JQ8A3o75J/gW7Aj7ZqG/2w68MGBbkhMJ1T+sP9nMHDDDyhbnal2wqJt3LFFyQr4mHi4crgDzxbE8ihWGDFHM0tNz8FxB4Wp0cegXVqrwjspkN9fFT60+sGw6wM5sC8ZTKZKDOho3yPR79qQOWuTTX3n/rqjc1lIweGhvk5jz7kxOiUVpnnQhRXA6XFZVGiNTXw6WATQY2Zd0SfO+7jlIG6pfalWC6soYgB+mAgsphdhbQM1aIym6MlY3j/Ft/RHNlZvEHuESqam7xxoe2TMVLfrxtMD4XViXuin2/SKZfTLcOeoRnnzqObhj9J4zpdIGNTMSQmcFwgYtRAh6sK9L3QwP03FyzX92pBUxMGXHI0F9KmR3OrBmHGsDuTxTdOJR/YDbS+cLGedrUBx77n09zKLBwg7fMwc8vhlzi8i+nE6dEdZNfKFXxaTBb7WXZr4QN5pTv4S/DEhREkk2GCnIYBFWvmSpc/KVFt4Rlf2Bo9aivS3gISJPPA77tK1gf+joGVLXmuDn/50rLpELoyMMPaT+JasPkPSTCkCw9bfONVW1ugS0pvzUoKAa3PFeMZQqzV2D/d0wbJIhE+1iAfRy29q3QD36MxiRocIwuSkcyUzJUUVqAKZnF6QObZVLiMDlcXac0vr2vRLOreZjCd3/smmjb6OXpw/CeUGdsxqHvBXmPTWCAyDrYgftz9WUC/HeoYDMdpl9CFC1OzslWrJDU6U2LTP06Rb5fmfUU/7/ta8i/2ke9wXYXtMB0s2x20H/JYgJXlAh7KcXCiYi2Uw/kHlbY28zBwzDTKUd6RbZRftlfyojee/T1lm8jlL97sToJZH1vNp9onZQdUNvi9y2Kj0qrCgHMA+W7Bzo/wRT+iATeTLOmUEY/JIF55Dk74eQPHMLJDnmsE3iIiNKsUTMy+hNJjO/G3YKFpHIi4SkeFvr6ptxvcNOFzYzufJ31aQeI8YqBRhMKBBTZ+3fMa8YfHa/gOv+w5vIXs8srn0Jsj0Ce32UV/GHi/PIirF74vujYe//Eq+mjjczKywIP4j4GfNf9h2EwvtrQCIw2WSWOAG1Ix1Wy4h1um31bhyblf0xKx0D1tiPhByw8nFknRaZSTNFS6YPxx2lycJs/S44uupjmrH+PtYZrx4w30yI9TqNxe3wiQMMO30bNCjWEhf/mz6dDPtHw/+tu18x6QXmZnjKztIWnMSXd6199zc9t3jDPA+c82v6jvYV+7B8Bi9gVl+wPCiqnNfTIxLprd4n/9MsfIAiv+VFXY6d11T8nCQgiId75bzfm+qGKffPeB3eudMYJiLXE+omxC918wZeMCt/8IrO/avB1JmiWuUeZYOjv7crFegz2BbDQcaQu5ZvKLOhGxnukjpH9XlKiFwPu8EPEZcR1kbKDkMc/tJRENtGr/D2Sx4Emzv68bDzLEKUmD6JSUfvqR+kHmwqpHP+75lKYvuIReXf1X+i73v5Rbso72l+2SPuDNBb/Q3O1vyrRAh90388Cn6XF1D6fxAENrV8kG2lK4QtzEturAApq9bjp9t+O/MvzFH1iu47qcz2FqVpZqlSCd8Dmj66UiFkh/f6q5osX6qSsPfsvbfNp9eDNVVJZHvAB7g/TF4tJL9/yP9h3ZLum2q2QjfbzpeXp99QPkcNi0C71A2CZ1myLTWiXt2JGM+I4y3E5zsRYEZcOhpfTK6ntoff5iymP3txevoXfWPkGfbZ0liwl5A2sS/aGnd7mIXdIMFozV7pUyQu7rA+ftXaWb5K2tqw9o67rifXwfb36O3ln3mORJf9AlObLDr/x8qbcyAiZLuMlZ7aT3Nz0tb2E+oJeXlXnz6csdL9HhqiIpX+GkWeu5iodddnp26W20p3grWy+hZSREA9x65KxP5YGIt4mP4+vzl9C/lt4hVhfEDB/tVxGCEx7THG8Y8YS8lFCbLuq5n4utxjKaPv9irZblHIcB1k3HQNHmaLr71Ne4Oc2ZoQFRQiF9e81j3Pz8Rj/ALnDmwowbcxRGDWiH0YPiqHLwX99kRcaOirHSVf2nU8822hRDPEB4+IcpVFSezxf4Xg8LDe56liJAcw8jDoJ1g6A5OajD6XR5/7/6hAPp9NTia2lfSa6eZhroDx6YOZ6uHIxpjcHD7cmWM366nvaUbJXvHpAefTJG07XDHtaPaPHzyaYXuPn4PsppDQh3WkI7+ttpb8t3D+I+72KVq7X5C/Q1AzRQ8Lum96Jpw2fpR7SwoJ/9xRV30bZDqyQ0DRUduBPsGjxnyMnsRzcOedrHT00h2HquAPc0mg1ksXLCsdO4va08+IMi3DszqQPde+oc/YgG/LyXW2YvrLiTyisxzMn3t/idJQZ5A+WEK5ZybYKAL1rePLf7VXTWKX+QfQB/oG/2n8uvp/LyKr6Xn/95s0SbJQw4Za/0XTLRA/Ln2K7/Rxf2mqofqWXfkW008+cbZDnOANgpM8eNOUrLd04752ubk+49bba84bk5z1D8aZZLiGSsGn9xv7vJZeQIDoyDxiGZ0EnLpN+KHeHNkxlwj74Zo2hs58l8nOWbRcDgDl8EBMPltNPgrAnykEmL7NqcA836YeeHdKS6VPwYirDKPGmTm4ZmTaS0uHa834TweOKYb4u4Qoc+MndVmbbZuHkVTFiNZiMNzZgkc7cDrIYgoF/XVunlLgQ7SCaH39MT29OU/vdiTzt4AoI4hCjePOxp6pjaXYvDelpTqACsFqvXK+JbBskT3GKp0vME8oanLPnCZddi4XT7G3/3yy/sd7TYJnW7kqKirQGtUrhnY9ET9zm/BQZPM4+GZJ1BZ3oJK0BcpMd2oMv7/oOsVgtf55v34RPkNY/bdQlrp6TuNLnHTeIXb7CPVfbQIkR6BcBewXoHnnztYAEOHj/NJywq1Ta+M1siZ0hNFQqovYwGC3258WV5bw4C658hf9vnFoq3YhgH//OzssKH5i5WS7p0wN3iD288/vpx96cU1cCA6nrhyiElKp3O63U9drRjDYAMb7VaycoWg1aw9RP1wdfhExVnpl/nXEvn974F9VajQL+YqY4mMIC7JrYuspK60LQRz3P6NTzm9kTh5mEzWTQuk7cwWKOxJoIWz4gDs8VIsQnR1INbPHePeZ0y4jpJl4k3SAMsjReJ2EIZxIpm9VXYknYmk6w81SERi7kE9wm6eS7vx+KLJS1Y0BryrxYHCL+VxnX9LV3S7y455g/ySY+0IXT9kCcoLjZRm5LbiLwDt5CXh7U/i24d9YyIp7/7EjZubl3YeypFxbIFDHcbmefDTVjEFQG4uP+f9JlMDUdSIGy58qfaXS1WoX8hxT7mNN857hWvYReh3KcBWPQSo1O5ufkoaTN3au8BiwDbZ5tfoiNVxbofQgN91GdJP1c87zU2HAb6Vfa1dGGPP9OIzmdSXHQS1+Dsw3q2lJg2NC77fLpt8Cz9pYqWgLgNjoGGZp5Fp3X7LcXLfbhgebvNBRizcbC02y3DZ8pyb/Xh81vZkN99m4N1wxVawO+RX4IR5FoOb71B5jT1/w0Hl//q54OAxWYQ9nvGzqbLet9Hk3pOoYm9LqYzel5EF/acRjcPfJauG/oQpcRmUD5GC/h5FsaExR2r74WGGCTiz1p/Y15/x4SedEnve6hLag9prXifR36xsLU6pMvpdNeYl6ln2tB68wOEsl/mWLpv3Bw6nfNCalxbEW9vN2vdNlK0NZaGdppA1/V7iib3uUlmXdUF7ntKaj+6Y+SL0m3QPqlrnW5jw9qrAzuNpWv6PcZa82cyG1A51eV3gzwvQb4f0H6cWOiSD4K469mkxRxmwvIOLQBnvtrymrwBllxIdf1EE0AEINPcMfZF6szNEg62fkYDTz4Ple+ll5ffKy+HQ80VDu/jPpj2lxyTSXeMfl7eMiC35uaQJ+9BTA8e3UX/+P5SssrEgdBAEwuLKE8b868AAW8YCLz2Da+r2F+WK8NXNuQv0TKyOGWg7NT+EgY0ndBtE6wAId7q6nPF+5/OYMsM/WXoV8a41m3Fawj90Bgv3D19kPRFR7H/8av6woApwsEqIrxdAuFvCAwdQ7p7A7+bObz+674iTuQ1MX7Ad8EWHAGYS48ZZ/5xBGHBpI5A0PfKgsyXe8Lu/VMtfRBig6wcN33R76Tf0DuKYKlN6HKJjERpWvrXghE0/msdS7xwBSojT9gfO0s30LaClVRSXSDn8OaMnNRB1A5v0ODzwfJFMKSM8aV4nTwelOHtAjLulA/iHAySjkk92e3+FMWVrlZuGuk2PMJgCNu+w9vl7QJ4kCXwqYSoZOqa0lfGvGMdCM3f9dR8fiDvlFYVyJh0vACzdj1jA6VGZ8g6t1iQJsGaKmkeTsImrgCD3B9ddAUVHs1ju6TpzqIvEr7BdNO7xr3MhVybUVWTAfVErrCX0SvL76OtRSvY9NZrx8alpS9wj4UEC0vkpA2kW0b9Uwq9li80axr3RhTZXFUy06uw7ACHjUVGHGgaaFi5TS66bfjzsp5ok/pawwzCVJ+4Tsz+A52Tc1XYM9zxDsatbi9eLRZdrCVBKjXkEY+YSHHir1jh7Kttr9P83HdFELzBg8I/DnhYhhHV5G3FCUdYSw76Os7JvoochkDroVHoNR7WAnh9xQOcUf2ajpKBuUnKVsjNI2fQdcMeI4s5SqbOQQQaK1bI0LgeSwka3ZzRhz3IwjqTC4qnX8nzP/5qTxw/XP8s5R/F+4BCE1b8BmUsJ2kwdWVh9dxDcfyAyhZDeD7c8Cw9uniKvJn2m+1vUQG3pjxUOctpyZ4v6anFN9CC3PcDhJXboJRgSZXJKYoTm7BarnAKb9F8cflfaGvBCt7ngyFoiEgaNxPOzrmczu1xtYimfw0vzQm+QZntsIzBXLT7E9p/eAcfcrDIW9n81yza2l+55U2dsFIhrJhJhE73we1Op7ioJLnCc49ab2uNli82v0xfb31T3rWDp5e+PmkcqDTQJ4X+q3isWB+SK+FDWa6h4KaVnNfeWDmd25tcQWO4EEcb0hKz0hCn2EcTF+ktr0nxSmYcQ3/15f3/RoOzTtePKk5UwiquAHK09/BWenLxNWR0YT5/aCBPVjkq6Te9rpfXc8jKN2K5BgOi7qI9fN/tRatoT+lmKqzYL+8yl8zPv8PDo/S4jtQxKYey0wby3+5cIAKfNmrohYSt1G+3/4c+3/xvFhl0UTQjqgwuGt/5Irqg7636gWOLEtdQ8BLXELICRl/0Sx9Dlw++X/pGFSc2ERFX/D975UO06uD3FOq8apE8FkW7o4rGd/sdTe59I1mMUSKUwdGm+uGBS40FykHDR4ZjeESUveMivPcKfavwW6B4oDsCfWafb3mFvtv+DlnkwU3o0YT7J8dm0l1jX6EYcyzf99gLlhLXUHDTigM/0BwWV5SaxuQJ5EVEIbqvBmScRpcN+ItkxeCVuuJEIuwlRzKN20BTBt2rDzUKDWRbCIDFHE0Ld31Mjy+8WpZMQ3cBRFTqBGw1YBUsP0sUmZiFzacI8DG5TgTXP/gQaCy+e5SeXnwzfb/jPTKbmrukIFvVbLXizaM1UwxbCYgDPMDDO6YsbJnLxhaViayITf0qhQfkAoy1jjEnUlSCScaTWqKMMnKhJv54w0MurKBliTZRVGw0dUvtT7ePmqWE9SQj7JarN/O2v0Wfb32ZNSsMmYm9CRE4r+d1NK7r+ZKBtewevoyK6Y1Y7/R/W9+gSkcZO83WbTOjBwWpY3I2TR31vL44S+spWKhI5u96l2zuKp+KCn7uktiXemKlLmW5+oCKttpRIX39RRUHOM84aE/ZZhnK50272G4ymgCvjccbd1GJtaa0V0SeiIkrMiHGEM5cfKO8trd51h8wiC2FRXM7JfegCd0uoYHtxrKlpY911Jv4DWZfvowNa/7PMxJBW6gXy7F9u/1tWTwC3Q/h8K/EAlutsFowQqA1WiwBIzI8sFWrLKzgoMhgEoRUPJJNguUVLf21ryouT0YiarkiC64+sJBmr7qfa/jwZS6463BUUUZCJzq96++oV8ZwSo7OqLEMtYyMgd6Q49rgaYWC9/mfnUUag4sxQH7BjvdlVammvE+pfvSCxbfv3WY4XTfsUcLUSIVCcfIQUXH18NzS22l7wWq24sJ4K/a2yWQhu6OSqtlCxjuo+qSPkrUjOyTlSFOs9m2Sbpm9c9RWTHtLt9LGQ8tk6TRMTYw2xUq/LoaQ4VpZiCUMUQK3YmPj6YFx72miLX28CoXiZCHi4gpLMe/wdnps8ZVkdEVi+IlHPrFpTVzsY5gVHsrAekUQ0b+I6YLwD4RO+1VkgF8wEuGMrpfQ//W+QTuoUChOKiL+tAIilpV4Co3uMFk/Em70pj5EU//grpiKa3fZpT8V87AhrhgShaFFkRRWANfbxLanSTmX87eI1l0KhaKVEnFxBbAUL+h9MyXEHouZSZrYavIbaTh0bLHCgp6UcwVFYxGLFg+vQqFoDbSMuPIHy7Sd1vFCGVB9ooJhW1hIBiMDhmRNYJFVVqtCcbLSYlKHfs8zTvk9tUvshj1t5NSJhtFALmM1XdRnmozDbXkrXaFQtBZaTFxlNpDRTGdnXwETT9tONLgC6Zt+uvQxK11VKE5uWryRjnUw+7cdB9tVP3LiEGONpykD75HZOMpqVShOblpcXGHB/qr7NWS0aEOiTgzYCje6aUznydK3rMxWhULR8uLKG15oeGqHC6UZfSKA2VdYH/bc7leqh1gKhUJocXGFvMJgxSpR0da4E0JgXQaHvBPJiGUMldWqUCiYYyCuwEBx1kSalH3l8d81wP7PSR5MQ9qfIZWGQqFQgGMkrhrju15Indv0kJlTxyUwuo1O+k3vG/SV5ZW6KhQKjWMqrlCnC3pMk8WkSZrUxxEsrJgQgRcy4jXgCoVC4c0xFVfM84cw3TJiJgsVHgWhP/Z4kFj2I/t3Qrff06TsK2SChEKhUHjTIksONoaDR3fSR5ufp+0Fa+QtrQY3dB/mofbnmCJ6jzd9svyzqKbGtKNzc66mYR3OlNMKhULhT6sRV4C3rW7MX0aLd39GB6pyqbyijI8e48FN8tJDA1ksUZRsyaAhLKijO/2KYsyhvx9MoVCc+LQqcYWM4rUjGDeKlaUq7OXyXqvWQIw5puZlhYgy9VZUhUJRH61KXBUKheJEQZlfCoVCEQGUuCoUCkUEUOKqUCgUEUCJq0KhUEQAJa4KhUIRAZS4KhQKRQRQ4qpQKBQRQImrQqFQRAAlrgqFQhEBlLgqFApFBFDiqlAoFBFAiatCoVCEHaL/B3Zlu8aeAkWUAAAAAElFTkSuQmCC;" vertex="1" parent="1">
          <mxGeometry x="98.99998779296874" y="189.99998779296874" width="343" height="112" as="geometry" />
        </mxCell>
        <mxCell id="PHb7f1i5PLg08WZEu7bd-2" value="" style="shape=image;verticalLabelPosition=bottom;labelBackgroundColor=default;verticalAlign=top;aspect=fixed;imageAspect=0;image=data:image/png,iVBORw0KGgoAAAANSUhEUgAAAUEAAACXCAYAAACLHum3AAAAAXNSR0IArs4c6QAAAARnQU1BAACxjwv8YQUAAAAJcEhZcwAADsMAAA7DAcdvqGQAAFD0SURBVHhe7Z0HYBzF9cbfSbJkyWru3cYGTDGmQ6imBNNND4FA6CF0CBA6hI6BBEILoYSaEMofkkDovRfTgg0YGxv3IstFxVaxpP1/v7ld+Xy+k9V9svaDte72dmdnd9988968N28inmAhQoQI0UmR5v8NESJEiE6JkARDhAjRqRGSYIgQITo1QhIMESJEp0ZIgiFChOjUCEkwRIgQnRohCYYIEaJTIyTBECFCdGqEwdIhQqQw6tQ6i+rMFtSaLfNbareIWS+pL73SzbL0ub2xWHWZr22R6lWp7+mqV4HqMkh16pMhUoke1mEQkmCIECkI8Yv9WG3212VmX1SIBFeIBLUPgsnR1lNkMyjLbHsx0C9yI9ZX3zP1Y1sQEHWpFEt8JcZ7arnZJNVlbpXIUD9UaX+aLpovAhzcxbNdu5pd0j1iOW1Ul7ZASIIhQqQYIJ3/iPFuXGL2jYhnhXbEt9KITzLZ0sCGdTHbPdtsbK7ZDiJGCKm1sFAa3xsi4WfLzT7S32IRoHa5+qxSJ+qjrau23fLMbu5utrnq0hEQkmCIECmGt0Q2JywwmyVNMOK3Ts8nGfdZ++r3R/9YFxEf2uERIsKjtW0jjawlpnKJmO49aXuPlqk+0v5KIT//YhTLR+qDFsjnOhF1sB9Pw16qw729zDYQQac6OgwJut7Q/9zZkOELW4h1H1NEfEcv9OyLZRFHdLz2rtL2emgbkuGJeCI2W8eUiWgqa7SJrIJ2wV+IaYg0sBPyPDurIOLGDZsCiK5Ybe0yaaH/EQEu0jUiqKY+0lV+jogNk3x9ke56+lymcz6XxrpIdalGTQSq33HSBu/vGTXTUxkdggRr9BIen2Q2Uyp5Riuq+h0BCN3Bw8w2lkAFmkCIdRNwzfUin6uL/S8CjoZrepvtKXM3T+8fEViuFlskspkgMsRUZVskrS1WPDJFfrvonAu6e7ZPTqRRYSDVKvef5Z7dvjRi3/lmOGU6hlABG0m7PFAa3miR7EaZZuJYy9b+Gv2+VMc+UGp2z1LVT8TJKX11zD/6ReueyugQJFilFz72X2YfzNW7kFB0GujNFOp+H9zXbO8hoTa4rqNURLLbbLOvZX7S4WXr3f9RJuVJ+YlNW0irTOe8LcL6r855U5rbHBFQoBpSBs6TCwrMjsoToSbRCjl8rs67p8Ts4VLPFlSvvBifRorE9u5m9gttI0VsEF+iohaJDc9fbPaYSNSZ6zr5RJHwnT0j1i2FlZcOQYKo2Ie+bPbSDH1ponrfoaE3g2nzzAFm2/WJCnWIdRfPicSOK/I1Kb3rvUV+T0oL7N4ImV8uMkQj/JOI7HP9pQzEhcadIwI6rhCvLSZ1dH8AnWaTpFFeJQ3uBW0rfDaAFbrL1B0t7e8iEfF2Ir8ujZC/76o823ZuxCpVJuib5dlrAyI2SuenKlKYn1eCxt9LvZF7B7ykTrTR6/aSIIYEuG6DobSHZE5CZgAv68GS+cYQIIDoxkpT+7fMz8t6SusT6Thnin5j3PABEdwJItjvRE6IVoCPRZi/XiACFnkGBAiGSub+rI73yQFmO6kjbgwBggE68AAGDDle5S2ujdhU3zxOVXQYEhykF5y1NmvLW2yPLQ5d1Rt3lxCGWLeBN3YBhOfLQIFIbJsmvnd4p7vayKXS+h7pa7ar2kxE3yFDvLfvStM8Zp5nb8h0ZhyPMJzTRYxfiwiDMcguqsNh0kD/JfI7ViY0ZNwU5Or4/QMS5LoiwMlV0eulKjoECVLJobyQtVTbNL3AXJFRXhtv3eLHOyVEWdrftTONg3ZSMLZXLiJ0g1Pa8kWCg5r53mkm+4mIHpImd4QILUflBBz0v4qIXbhI5q+2CxaaTaiMXpPfId7fymS+V+dtpc/NaW5EMmypc3M5GRLU9rW0T4KqUxUdJkTmlZlmJ75mNn+Fv6O9oKcDOe02MOqZbouHJTlxKJGwvDdH1/B3MLg8Rtf9z4Eiws40FtoJMVHv/oDZZjORb733raXFvTcoOkWuJcC8vlKm8P2LoyQbFMdfpuQFwyw4Ya7tZXZenmfpLfTAzZL2t9c8aYBomMI2Mutfk2ZJmE8qYi3pVk1Hz65rlwggv7YgQBCUXcHAUAwQRe67w7ykEM2GFDKT1eiACStlzFpjFISxwmtkHt/aOxpMDZA1Z/36XNdXF3pA5vOZsrZaSoAgT9fUJd2F6MgXidiDe0tFdIj2ha6aJQJkW5touXg0AN3j8jgtl+v1gATb9MIh1jYgJZwSUqAcIEFCo4gRbQ0QnvIrEdwxMo3T4lo8M02Oy9Xv2lpruIlxRCmy9Vihzr3CH3NMRbTSbbc98E7xwpzErKMox3MXI/j0or1yQhLsDGDsLJYnMluxZSI+zPt9odysVhfhe7ARa/jCMszx1mtYkHfgxKRUtlQeE+wwJJiumuIkWFeBjJQHqoAPSLAP4TH+9xDrLmiI9e9Z7z2Yp9tSUMxnsrUvX2z2kzrZ4Bp0tvyGjP0gW/VX8yP2QyuNt1NufPVTmWg6DAmiBXZbh0NFEJqKeHNYvTZjgiELrtvg9TJc5w/ZOVnAW4zjoqVgBslFS8z+x6CjjwGZZscWmEu/BRhumiAivHyx52aOtBQQeJWv1nJvOF9Sef5wxyBBPUDCRFy8XJzzYF0BglMT7xjRfUOCKSw/IVoJiHZg6HgikIUio5byEdPwzl5o9oHMYJflRTLWNcOzq3uZPdjH7EL9JfSL/XS4/y6N2NXSGH3+ajZwglT4QquiXVRFdkiCLQPPD89wLySFp7oOgrGa+GAlBsjDQOnOAXIMEKYCIKVyyfuyFrBRlYRpnDTAl5ZFCRBAeFf1ithRTDxQozo93+y0Ql3Pvy4y+FSp2d9EmrGzR5oK6q0iog1XWw9dd61OdFgDOoYmKCAgTB9rcTeVoiBTTjy6yGzJD0mwU4BQFqwdF7enrULfS5tJRIjS0+URl9UlSG0FCeEdPj3PD2QWiEH8ncziI3Oj37l0qY6/tNjsfYKoo7ubjGUqgxRcgDIHiQR9nk1JdBgSRBPsTXe5joKeN14T7CECDIOkOwcIY6kPUZEcLKs2W9LMoZ/JOpeUXMW+IwQnyB4iOhIoFMS1+P6Sryt6mG0RQ4SLRYCXLYqW0xyQ5muJH/TNbKsNxICNnXu8NtDmJMiElOrqaquqqnJ/m7MFk1p6qRczaUdtiUhttaXFbabNq6kyr7aZUrkKPJWzwrwVKm+FytVm2mrcfQbXrJJqWG39c1o3VCJE6oI1OXLVEzpR1+dlIhFmXjQVLIB0pjS5HyVCAe9sIzkiJdfQJOrYJmpTd/c0GxEoGToRj/JtJf73JoA5wj/qH/iT66PZOhJ0v6Ym2nza3KJFi+zxxx+3OXPm6IEEr6Xx4JyMjAwryM2xGTV59uyi/rasz2ZWmT/QajKk34NWuoNIXbVt8NkfLbNqab0A8XQIMO2Z5Vl6zyGWvduxFslUl9qca6qcmjnfWtUnT8pOkZTFPI8qCXxJ4B3WRecN3MV2GXOwPbxnOC7YGYA4XbjQsztLI1YrWSAa4qY+ZufLXE0GrAcWQCIGL9j+UW523cIoGel/55Q4XmXsJiLEYcGwC044tEP6VwwNtDQCnJ/Tuc/JhA5ku5AxRGmJh0hLRPfgGMYSyWzEuYnAeOBVSzz78+KIOvvokM7T/cwOEsE2o/m3C9qUBCka8rvkkkts0qRJIpNkj65xyEhPt/TMLKvJzLMl/bazhcPG2NL+21hdK6mHBfPH28j3LhUJIgkrwQOqrfMsktfT8o79s6X33SgqRU2BDvdqKq3yzb9Y5Uf/kBRJ/GKePAJCUDSl1kUy7Is97rBj9trObttZplJMN8ozbU5nEiL18eZys8PmmZWJBBGNUwqjyQwQCoiLecBkcGZboGOmimSmquOcIfYrqo3YconUDPWtTFMLQIsjHZenD5RB2A2B2YA/OGGQO5bN1P+2RGWzLwDz5jfuapanff31eaia2oaSx/VUJqn7KbtQZRMCQ5B0ic4/bK7ZeyyNp3OydewbA812ZDw/RdHmJDh37ly78sorbfLkyS0mwShEAvyRSVmX0dVmbXaczdvgQKvOlrS04E4iXp20wHHW78cXowSVBF13O9mydjlaWmPTibeudIaVPXKeeeXqqnH9JoLqUdprM5uw55126baZdtV2EjDfjKmsrLQZM2bYwIEDLTfXH8QJsc6AtTpGzTCbKZWNPnYraU9ogov021wRHgsvTdU2QyRH0tQaiVCNjsOrGyx0FCBoCsG+xjSN+PPrz/W/0CzQLDNUlwxdL0/WEYS4vlTJ/rJWBusYxhhPljleLDLmnI20/2WR4HpJTPFUQGuwUjtDajZbeqaIqNaG/u9BG/753ZZZIWJpATJkAucu+VGfkouLJzulZubXuroksTFSFYtIja34/iOrK2cBiVhxWxXc08L1xlhdbYblSKBiuXLmzJk2btw4++mnn/w9IdYFIEqYssUitj4iFcc5+udbEcnZEpffzTe7VX+fXGo2XtoiaxBDmCRLXaFzghAYzquHL2KuLH1mxhW5All7JEuEFGzsg9jcPGVtHB9bjvvslyXRtGoIWNfDVppbFbF3yyP20BKzG4rMzlpgdgYEiN3tYz3pCpSBFpqq6IAkGAO9XS8tw3rPfNPW+/p+vStJRDORVVlk2SWz9ESSd1nIQm1JkdUuLmnyk/OqllnVt6/6XbYvVQmwvGCoLRkg9U8XwDMczBuu03kTJkywTz/91KZNm+a+h+jYYEyPGRqfiOxuWmy220zPvmJ9keB3vWI3TgyBBK9bPyI+jti0dYPEghN8QGpbyVAgqep+3Tw7Itez4/JkXueLpKRZnqO/57m/np2h7Tf6/mttLNe5j47fRcdukhMth6KDDXnEPOa6XB8Tu35USPVjvHEO6bNUX8d5+uf1crPjROKPlJlN1L1gbotLUwod0BxOAF1nRWaefbXvg1aVO8Df2XhEZFoPnvQPG/bVvVaX3pAXwnMcljPmdOu6868kpf7uNSCi3r3yqxet4pU71JVKSpKQoKf/iobva5N/drFUgwy7Zw+z07fQ4fpt8eLFduONN9qHH35oP/vZz+yKK66wXr16RU8M0eHwhYjvHqlT38qo+EGfyfXnxuoCAvHhdvGP3zcXSv62lpm8rcR0U2lZZTr62qKIWyTdHasmdqQI7S6JBmN17GOLRez3+MbPd7ZilXfsQs/eKV159E4iydMLVVcR97eS/fGq9zfS+pYHh2ifE+2Ye3A/6R/xp1t9bhPVfS/9PVFEy0p6qYA2YqWmo0uXLpadnV2/de3a1TIzo+NujeHpmqw8q8l1WcyajHSrsl7T37S6NLFVg0izyIoKq50vsxm7oDGQAHjVlVbzw3vmVUjqkxAgYlOXlmnFg8V8hPDrzWTH8PEPP/xg33//vXtOdChTp071fwnRUbBAxPLsMpGLTMcj50k7wrzVdwKUxW1R8kA8tAVSQgs4QVobC5m/2t/s7cFmj/Y1u6ZnNP19mc5ldkZwPGNw1/Uw6y3WwVmB5xdNMXZDkwu2+N84nvMGSATPFpni2AgwhbAbVZTV78bp+v9UPUj8+nw/s9t1zYO0P5gjzB+nLfJF/2AOz9X5b8qIukZa7366/4tlOqMFV7qbX3tICRKsqalx2s1ZZ51Vv51xxhl23HHH2dixY23w4MF6oP7TTQjPynqNdCTSHGSWz7fs0pl6a2t6HJ60ukyrK54ps3juSslrCDqmdv5kq5nzg7itYZKtzultS/rLFJZQcCihMcEl3n//fVuyZIn7XFpaap9//rn7HCL1Acm9KrI7eYFnR8o0/IfIbzqBdH7fjmhHRFr99L7RtjaSKcp7Z1OfZ4dq329FMHtLi9pSx5B2H7L5UmU8uCRiFf4oEGn0T+lutqH+BnLTEuyVHbHTZS5noMYJRer3IbDv9Ze4RhZeZx2UsarvedI/DhUp+4c6Zlm/q8xy/ZbPzqBCumcWjcfsv2VRlAyvW+I5jbIlU/VagpQhwREjRtiBBx7oSI/tkEMOcSR4wQUX2H333We77rqr1SYJVmZccN4GB5lXW/8KGo2IGKf/j/+1NEZ9GwNdq3bBj1ZX9FO9ECcFGmzNcqua8IbV4RFuUDQjNnfjX6jI6D10F5/3lICBBQsWOE0w0IhXrFhhX3/9tQs/asPRjLWKOt1X+TLiLDo2vhdRHSSz8nA19pfLIuaJAHB68NbQ+jy94w1FbvdJ0/tEWt5r0qrORKNSy0RaCJp+AXM57jUzLe1W9Yk/UR7laBvdzewcEWaD+kITQIboswsirn6UT7E/6n4eKvFWG9fDsfO6XhcLwwP+3Cpt8Z2BZp8ONbtAJFkoUvRimijllaq8WxZFbI9ZZpeIYJetBQ9KSpBgQ2AcMS8vz0499VQbOXKkI8xYRNRYKvKHWHUeAVVNhN5CWk2F5S6Z0jTJqVthNTO+0TlrMIlVZl3lYquZ/JHq2UD5uofKnL62cBimcPQ4ssewzCi/vfjii84ExhQGDBMQKoOjZF2MGfzu+0l26C+Otj33OcD+dMedbrZRRwOpsG6QxneADIb3SyO2XKwRNG/+DtP7PVcm5MsyKd+WmUtA8xARBNPndhExstBScDyLIcWmuCIQ+lVpUv/FDtZnRKtQx7PIemCOthYGS+R+Lw2vu7RL+lvGxJ9dFnHXD+rH32lqCsQ5Bjsxy3/Gfeh+NlIZ14jkxw8we1z3e4QIkTWNaX8cDu8xRfAvIvX950fcQvLtqRWmPAkGIDYObXD1BlFrpTKFqzPV7TQV6pK7LZ1qXcvm8CW6rzEQ8dTO+05/sWmSA4dI1RevWF2p1IAGyCri1VpJvy2tJl3S5ksG84Z7Z3u2tKTEkV2sN5iOoaKiwsaPH+/+rmt47Y23bPKPP1pZWZk98eTTNnOW1IQOAtruFInFuYs8u6Y4msgU8gCYlRupY7tUovq4+uzbRQz76jtByLFza5nGxlSzQCS/FimQGTrAD2KIu0rV+fsigdZ4kkRnR8lMMlAFQlsg0w9U1msqk/E4ptkx6yQZIIjjpJn+HBNd9adKc3RPD4uAF/nqIIT1irRAiIzfcc7sK620IEbrI0HE+moPjGM+oPv+m8gQ050hgKBpVOl8gqxPLdKzkbZZvlLk2xQdhgTT09MdEQbOkgA1Gd2spO8WVpcR8zQbCWLyChZ+JRKcHX17jYVeeu3i2VY7V40zNrw+DnWV1bZi6vjonOOkdfOsOrunLR60szPrA+RLYPLVrc8SAXz11VereNYxgSHFd955xxYubFl8ZCpi2bJy9zrQcr06T2SIytMxQDDzSWrEDy+NuPyQgembJ7Eli8sr0vpuFAnsJPJLJhFoc4zF4bgAdPtvVnguPyD4T0XELZ0ZlL2RyiYtFkSTCGTOnyxN7aJiz7aWqO+7yOxQmZ5jJDo7qv8fp88zRY7JOIdiGZNkhgjX459XSmT++trgMv3zd7Q3nxThvp2l6SbLIQg5HiKSvK+32VMiw51lwsPflMU9zdMNX1UcsctUr1bM+p8UHYYEAY0i1vxDg6rJypUmOMp/O7FYw9NTMekryi1//oRVyKdRSFPjrCyz6u9eU/fuv/kEqJ74qtUV/6QeFN0/CUTEy/MG2eL+O6jKK++N1GHpXo29/vrrqw0BAEiRMdIPPvigE8QMJmlNKQamsJ28wOxDEQJeVEDfNVqNnMZO2MrQBkQhAI1yp64RN0XNQWV9WBmxqRKDL0QQ/xQBkbkZCSdu7zcygzdIUi5a3vUyy/eRWX6/iLlI5y9T/Sq0LZNGOEMbJLiHyBDtLpk07yrSPllmrFvnR2CO8F/LpFnqhE9V1re+gUadNtCxmPRremv8vrOOfUbP5h6ZykNFnOzkEqQAe0D3yThhW2uEHYoES2QaklUmADNHKnP6W1W3fqtynrqTwgWfW2HReKftJUPW8iId87WbfdI06E2JmGqKpqv7W52gom+/2mp+/FjSKv2+AQ0VgqwevqvVZSIBPnQ4nr7Fixa54Gi3K64MvkOOr732mpWXdxxNaV0FWtrlS8w+lokZyCKJBs7socYsjWcfmZNBHr/GoJ+0pZ11DqYlb55M08/rNT8m4onNEDNaJHKUSDYRGJe8SnW6Q9sMnYPZ6qrG32DTVwh1mup9hTREYhcTgcQJR+V6juBcGcJnIr8Hl3r2hsqu9psB6cBIltCvkXoFj6Sv7vXXugdCf/boptJRJQWSitytukO2bTlG2ITXsnZBWMiXX37pzGIHr85qM7Jt7sZHSIGKuw29MMzcQd8+ael1elMJkFa3wrrPHW9dqtTdJIMbzEny9KUN1i2cbjXzp9a/tFjUlS2wmlk4Txp4xJSfU2A1G+0GZ9YDAc+VIE3/aWp9WEwyzJs3z775RtcJsdZA+39+uWf/EUkxywMwz/Y0EeC13c1GqI8NSKuxwLQ9MIY4CYO5Txrd0yKpaq4h0SEJ67GYqUlEjJjEuyTepdJQMTMbqgO/zRcR4nFmvZFEUr9pl4idJDMW7ZMDmLZ3d0nE1QnNF3HO128EQjf1fhkT3U16wAN9Im6WSzD6w5ACDpMP6VzaCA200PZFvKYTC0JCGP/CEZCV5Y/+6onXZOVbyaCt9HnVc9NWVFnu4mnSBr+wXjPfWf0udW6aV2GF88ZbXUYSLVDHQLJ1yUxlkVtdyTyrmz1Bx/r76lFtVR8+6QdH+7sSwrP0EbtZZZdVU3MxVY4eddORm9uAAclnwGASL1++3I0ZrlOhMvFab8x4aCpitgjq6kWySiAbfaffO1Em6lV6rfFJTJuCPUQKIwNx1zZP5TNvmM88EpwPxA4majossPSoNKgqv06c05CE8BvHzVVnTD7CRKn9IapfiuBGqV40OY4vVvmzdY5rgqrTtlmebdxUwyoGw2TW39M74oYQgrZDTOX9akptZRanhHRBgHgCZ8+e7RwBbCQLYI7sxIkT7f7773cbx9SDc3qMEElJCuKQXT7L8ou+sfSaCpHg25ZerS4xFmKZLBFYTukMvkT3xSFSW2VF642xym4D9YaTm9Q1C6aJpVctv658sVV/L/J18N9kPCCtrrnWZYsxVmHq8mOqAe2SRbtrdrYLIofgkpEc+z/77DP3zDoKqHNxcbHzAE+J26ZO+8lKS1baZMQLzl8w336cOm2V4yZP4e9UW7q0AU2+HYBkEBrCeCBvmre0tUjiyhYSIMARMVZEF2QRAoEU9NS+E0RIHJMIn0mbw1xFbBJLTmKwyNNnIp1JMZZJLMgSc6zqRG7BAEH5ODxOK4wkk/hGgXOH6N6u0/NjuVkHXeAjaYKzkzfDFiEl5g5zXLdu3dx0uQAM9hP+wcbvEGWstoiG9uP259uCYQf6e3zo2F5z3rJN37nCvPQuusE6+27X66x4sEzOgGnSPRv61YM2ZMLD2pVY00sTsX122L9t8LePWf/Jz0e9z6tBGmVhf8v91Q2Wlr+he4OEEVS8/7hVvEtChwbEQeZ4xpCtLPOIG+2DxYUunXpwOJ3gHbtLm9jEs2/+942dd955ThtO9vx4LjfccIPtsssu/p7UxneTJtltt99ln3w2PvrM/P0BauMcPWm8d96//x0gE4wJH3rwWLv09+c7+VkbIDj4wkVm92qjfiQZuKqX2SXNm8G5GtDoRs+NjtkFbMPjOEBm8HN9VjoqYkHc3ZUyIW+iTpip/v7GgpCbR2SAHJ3kkaL5nrLQ7DXpJHoNUahOe6lOD+vemdHSUuAVPl8a6T26D0x5hgeeVp32U51i5aA1kLhVtTNoxMuWLbOioqL6DU0hiIGLJ0C8wpXd+tvy7sP0bdVXnGY11mv62+alpbtfaCwDJj1jmVWLo09PW6Sm2rqV/OTGBRMB4izts6WtyC2wsl6bOLM4oShpV92SuVYzVxql/yTrli2xFTM/dy8uKZCczFzLGLGzWk1BVNGMebM4+gYhgLIxmDK42WabuftIBjqM559/vsPEDL70ymv2+ltvi+xqnYe7Jm6LB6S42nHaV1Ozwl597Q2bMPFb/8j2B4HLJXr3QUMqkCm4bSM8wI0Fmt5hkoX6IGhdb6CucYYIhywviUAX4rQm/d6QGCYDlypp4MSBIjmyTWerbgEYAthDzYTfWgPc7xiVx6NE9MW7brpeWzhIkjzG9gckh9MjdgvIL5YAAVlflhcOt+X56/MtutNHl4pi6znnY/dW3C8iw+7zP3dZoyN+AEC3JVO1TUk61xgNY9bIY3R0jpX22txqu+htJCIh6sULmv6F3ho7PH3+0mp++jr6WzLU1khz7G1Zo/YWgUVWK5qeeJA/JtK9e3fbeOONGyRB8MUXX3SYmMHBAwdZjx7dHXk7jS7BFo/Vfuev9lPO2tICA8R2eFStNa02Gugq8Xb6TBZo9jUgYfUxhs1FQ8Tgbhem1Yf6y+hz/LrZLYUzjriAf6+t2LesgpQhwaagtovIqc8oq+0aDBr40JMqWCACitPwyEDd96fXrUvVEqflFSycYDklMxLHB0qKq7MKrazPSL3XDKvK62MVeYP8HxOjZt5kdVHqq9IiVj3lI32u8n9JDLTU9AGbWlr33i4rcFSqVoIevn+M2r/jjjta//79k86dppOAUN544w1/T2pj7IH72ZmnnWqjd93ZRu+80yrb7qN3sYED+vtH6pGmpdkWozaz0busfuyYn+9hZ6mcTTbeyD+6/YHG0kPvj7T1oEQt9xNtca+02SiWfDxTHjUPA8yQqOH1TTbTAwJkCl6zK6HzCgPhS4B5EsPnZZ4HM1YA5P+G9lG31kCFymPNZO6bqnA7zKSJnVnTWuh4JCgSq+raw5b22TqqI8ehh7TASILb6j5nvPWc9YEUw0rLL/qf1TFemEBK0rwaq8wfZDVpUe2iNj3H5o04xI8lXP143pBXMt9WTPrQ6kpkGk/9xGWaSQ7P0nLyLWub/V1XR0hFnHPbZQ4JltqE4LbaaivbaKONkpIgYMzwvffes6VLl/p7Uhc52dl28gnH2V23/dHuuO3WVbc/3SrCWzm2yXzp8849a/XjtP351ptFqPu7hbjWFiBB5sgGy9wQc/dMWfNWikuEv4vs8I4G2qYTFV2DKW9vwxQJgPRvpzqRAKGpnIHmFZHhMyLG1I0FZP/ScrN3CX/V56AGfP68QlvD/X+j8bnu798if3cNbX3VJgg0b+r9NAYdjgTr9Ba69hxgtXk9V3a/PrqWzbK8xT/oQa1OFml1VdZj9seWU/STFRRPZE/0hzjUpmdZSd+tpW1GSRBtsLTv5tLe9AZ4G/GQ2e1VltuK6Z9b5UeExcR4sBPAq1lhGf3RAqVdqjjmS8bdhuXwsmPeNkQ4atSoVRxH8UBjImaQbDMdAdwTOSNjc0iyEQJVHwsq8Bgy1alkJzg2SCixNoEUMRa2OTwMgejP9yICAo8Xx2hKzQFZmF8QAbq4QB+ICtco0v7HyyL1U+nisb1IMFjcKEaUGgTHcT9jdC9MxUsEZog8KmJeLmMrENug/Ar9dof64ORddeMwXR3I7/X8SEHmoEqRJXtgEmJuKVKKBOPHfYINMGe4d+/ett2229iRRx5leV3z3P566E10K5tumcuLol/igHOjx5yPbPiXd7v1RFZhmRjUdMm14sG7rvydy2fnW1qfDfwvCSDttGbmRKuZ/D434e9MApXbZbPdLT23jyuNINh4Oe4u4Y2v3Q477GD9+vXzvyUGIUQElNckmGbXsRD3DNfwSNc2+oo0rlefTKp7qipxsMdFFLcsbhkRfijNaoI0LjpJxLGnOL+Hz/t4gP+l317Ulkjk+qguJ+VG5ywnaA4JQTHkAPxLb4l8AmbAKfFvXY9gaork+H4qf0hMKAupwz5MoqGuCZz1o8j11IVmn+neuS+us2FXz05RcyfDTlsgJUiQzDCHHnqoPfzww6ttjzzyiD322GP25JNP2kMPPWQ3jhtnu+y0k2WRfTnGjmTR8rwFEy2dhcsTwJm+kqT84m/rTYtEWJFVaMsKRXjBMZzWJd+6bCwTDRdYIqjcuoVTra6cmIQGJK62xtL7DJMmuEm0XO0ixVKgCeKtjtRWWH76cqutXm4VFctdMDQb6cQ23XRTZ/YmAxoUc405PkT7AQUFT+YRaqiBSCJjt6mvvajYbFEziJDxPvIIsrwmRRKXxxohh5MuiwvqdwKh/ylSgmh9EVoFJDm9rqdXv2RrMskM9vcVmV0lMk8W4kLs4F9LV2poLNJ0WmF0yhugHGanPFSe7ErJwSMisepR0mFYlyTQDNKk0Z5VEGkwQ05LkRIkiLaHF3T99ddfbRs+fLitt956bj2NgoICmUE5lpGeJhPJP9lHl8pF1m/KfySESEjzQID0/PUPXM1hgumW3muQpWUXqpdvhkQHULkZw7e3tF4DnbaA4FZIaFhbIs2rtuGf32abv3GOVf7zXDv3nHPtHG3nnhvdLr30UpdINVmsIKCeLHbPGs+BBh2ifcAMHwJ8D2aBXh94Sx8RafxivtkrTeyXinQuaaVcIgYViQYIyZ4is3A4/X/0MHtLhPEEY2f+91gwXvnbvIhL3DCKObkcpA2CdooAf5E9NZndVO5Dfcx+FR0FWg0kTf0/aWdTRMzuXJ23rTS040WAB+ucnAx26p71h+SqaISNBSm5blliduBcsy+5F7+JsRrexbpn0oS11NvdEFKCBGNBQ47f4kGAqFv7IPrcHbqWz7WuFepGEhzfeKRbycAt63uhABBWer+RIq8h0uaSa2INQqQUye5mmSP3VB2j3RrVZ0yQD1llc6zf1Jctf/H3VjPve7eeSPxG/GTseFkiQH4PPvhggxpj6mOly6ojkfkgyeTNvSI2RsQQNFryd7ythk12mWulGZKyCqJo6K747TORzTSfSEiisIM0zeEqf3tpa0dII0QLA8tU/mMqf1aSADoSHxwvEnm6b8RukJm7m+q2gbah2jbSto8I7G6R3xN9zfbTNZK1HmZsPKz6B+OTebr+KdLQiAtkbvRu3SJuuifnz9c9fiitbk1JohnPfEfEepLM36tkRM3xRZYy0F7PlNZ7sTqWpiSeaA5SjgTXCD1YJo4TlBqQVcSrsb4ikNqMnOiO5kBMV9J7M1uR2YMC/Z0+9DVS2MPSB4w0t/hHM+Cp/LQ+G1pG3/X1JSpqCEkQKE0sY/SGeCVpTuOL3xJ1CIlA1mmmIHZUbLLJxiKPOlteUeGcHz176p10EIyQeDwmQjmStFMiCjgccWJO7nUyjcdI23mgbGWDTwTCQu5c6tUnY0A+9hX59fBb6+G5no3M0UECEvGNtMz7yyJJc+9xzMaq10UilP/2E6H1N/tE2wcDpN3p76ki1QH6vSHpuk/1mRUzFri7mtpBIlBCVlhvBJM4uF+IPzbVfjxI7vq+yO/0Ys8O0fN4ocSiuQh1PE2DcczrZJaz4eFua3Q8EtRDInykF8pUICQC3ttIC0xVMtEUD/25VXXVk08kDurdMoaMskimusumaidotPqv69ZjVQj5kaK7qS7vPnNZkfWc9b5M4ubXPxaVlZX2ySefuNjBjoh9x/zczj/3TDvikIPtD1dctkrcYKoDycFRcqdM0JukefWTuLCT/UQ4TVbjv0iaz1HSDC+R9kMevvoUVz7ITD2lRmf4O7cVAZKENQDZXM7JZ3JB9AC0swdkdo9PPBxeD5RHtCpmoZC+iuwzOBsaIgEk6BGR1FsV0TbBFfur7ZEppqd/IqvU7ao6kjk6SP3FwlJM+QvAPaL5PaR6niCD7dfzzZ4qjVhpzDEYOZjlz+l1nyZiTpaUtbXR0P2nLMi1xxocgZB4kQybu/Fh0eltzTKfPBcSU95rhJ4IohIH5FECnN53mKV1gySbSC41KyzSc4hM6g2prL9TjULFMB6YU/aTFSz4yhFxa6CmpsY++ugjt1ZxR0ROTo6dcuIJ9ocrL7P99917rcYBNhcQBEtWPiYiPECE4dJPCbz9ZZiLIgm8x4eLDM8TGbKuxhRphzhESGDgFl0HOmFzyXqsswLti7T8e8sERdopc4HO+ZPMVXIItibmqa53ytwu1l+uA+Ed3s1bbQ7vADWb/dS/B0YU0+6e03lovO/KlL5VRMqY33nShp8REc5QfYNUnxg4Q3U/F0pT/Zue156639gEDW2NjkmC6nF6xZAgWJ4/3GZteYL2NUMKRJwruna38kKRVAOnp3XrYRkjdo29bKPg1VRb5mY/t7TCwfV15h0zNlQnwuo560Pn1XYkqC2RKRy7rcksZtyQ9FrEDXZUcA95ubmNHgJIRUBWe4kY/s56Itq2YbRG+xABRxaStR+kGf5VZHi0NKN9RRKX6/OzMpeDtXghz4NFEPFmIdomCysRouKg8lj8CE2rtYB5/U/V5VucOvpMlQmH+U1BxI01xoLXtJeIsbfapvuu+v9FpHyY7mustqtFfu+L+MtEitw7G/oAmWd+pc7iWT2fa3tImwzupx3RIUmQQeceMeYBYCra/PX2sWXdiedrGsg2s3jADlaXiZQmR0SaZpchm0VVuFX6weTw1N1F8npal6FbWyTWqaHTIcH0SpnCs99zUwEBgsZvydp+4Cxak8OAsKO33nprHYgZ7NjgNdLQj8sVGfYT4fWNri3M6nCBUUCI1HJpRtNkzt4jrfB1P96eN4wF8oOI42v9Nkuf8Rqj7SE7mKAnF3j1y3MSaYBZTKxda+A9EfRN0uACZwjrB18k4h0hAia3H17dOdq+0/WY2vdPqX8VgTdEf+ZqPzM/ylX3WDFkOAvN78xCnTfA7A5pf6Qfa4spcY1BSqTSYgyLxdaPP/5418Abg3snmp3xlj74PY+Diu835Xnb4LM/SSgae1ueS6TwzZg7razHSH9fDFQM5vfogebyutUWTbGypy41b6m0rESmczxEghkb7GDdDvmDRbLU5fnAk7ZQQvbl7FLLWfC17ls79bwGiAsv38qsv/4muwPCYB599FFn7iZ7Xjx7Fqa69957XfhRiNQArW2SCIEV3wib+VJ/GTtzTjI2/7gAadrBGtR9Jdu9syTf+jtQ2wDtwwRl/eHrpHGxdoiTBP12goiKNX9dPsMY8UgsKVHUX9evA+N3BC0/J1INTNyRIq6zRVzw2SwRHPWep+OKqjxbIEYvFiEy7ulEWVvs9ZD3ArWfzVRvnCp7aNtan1mSc22jw5Lg4z+YnfiGHnpckWl1lbbZWxdZQdGXurtGPGGZzxW5A+3LAx+1uoi6o/jL6+nUk6CK8yQCFW/eY5UfPmGRLmuK4FRhkqCcg6+0zE1/rpNX1gehmK/e83MJmuSm/rrb9jL7v32jIQzJwFort9xyi7366qtu/CwReI54Vi+66CIbM2ZMo59riPYFizI9KyJE0/taf5fCMELQKFcTR36g7w36X5FRlsSKOcuA49Mlr79Rf8tcW8LJiBdkuU9OgVT5W6+FakP+avQB7ZKQLSZ8fOGTNAseBXVwdQquTT2d4PK7fomRL3ecwB6uv6nIbkuJ6Z5qLodLrpOtire2kGLVaTxYy8BNCYpDXVqWzdj8+GgS1Ebye9Hw/aJptVa+x6SIiAnT+qyvvyLMNRVPWExuH8uQKZzoUTPm4stutCxthap2bJ62RMjPz7ctt9yywYQKdEDkaCTPYOziVCFSCzuJHMb1iI4bvjTIbJS+IwqIIk6ILGRBf33xiP4AMemVBmv/BwQYoFYEdd9iWRRFZhcv8OwC/T1Phss5c6XJzZcZqu0sfWc7W/vO1Xb+ArMLtV2qY69Vx/xfmeTBEpr11xYiXFuE7QgQkdbmiQD5nZksPdQuIT7XlPTPepJnhgDukWbKkqOpRoCgzatEYyRUg7EpGm2iLcgr1xTk6eFChPVvpx4RK+u9mS0cuqf7idXmkm81VpeeZeW9R+jIxj0KrybNMvpsYJF8vVkCp1VOss2rrrDMbQ62tG4yR+PqyTgQYy3xt43JQBxkQ0CrI6ECmWUaCoNB88Y5wtaGCn+IFgCyQFMboHe+uTQ3YujYh6a2ifrZy0QeJ4o89syTOSotimwqrEndVRsp1xxHcoK/8ZbZkApM7JraiFVLTJliVylyZNyQ5AfBxtx19nMMM1w4h43zKcdB5VI81gvj8Vm6dp42Qm1YTH606nZMgWdXqq5/UbPYTPV2UAFFKzznRIH8UpD/HNrcHCZDNOuDTJ8+Pak5zOyGww47zA444IBGm23j1WOd9LrZxBJ9iT8FE7R0mg374q+WwWpyScokt2Bl3kCbvuVv3dKdCaGns6o5zL4qq3jrQauZ+c0a3mzEsg+40JHmSpUvCkhw8lKzKdpi6//r4erFZTmz7nBDQMvDJGaucLIQEp4lnczvfvc7O+igg1Ii60qI5Hhb5ufB0s4IoUFcTpeGSDIDQO6+KTIdfqyO2ALJy2LJz0Jpgyy8tFCfyTu4ROfN13eXni16mhMtF9+vD0kDJ/SbayI6qUbnxwJNdJgUDhIyEFfIUpq9ZDQRAtRHx6+v7yMyPcv3p8hA4pepcncu0XeRKlnlnu1ndoA03OgRqYc2JUFAI2RdXP42hCA9UmMxaYlI8FWzjwmFS/J0u9SU6AYbvm5dWherSVMXm4x89XRWI0H9662QxNZhFzSENIt0Udnxc5G1oQV+r7rPwBMYXFqFnyql9O49oyZFQ+B5QoA33XRTg8+W30jPf/3111vfvuqmQ6Qk4KeLijy7o0wdl8gM03KcCPC8gujv8UAO3RieNmIL2fiMd/iPi6KdLMCkPlplbJ3l6feIrVBzlw3kzk/TZ6fZSfbR1FgzmfyFvpA7ef+tzv2dyJhZIcTuodXBqWiFiUCd/lludoJMbkgXTfUOkSDl8DkV0eYk2FaAPE5+xexNaYRtqmfr6axOgi0D8oMZ8k2xevIKfwdQ4WdvZnbnaP/7GkDqrHHjxjlHSUMaNJr2ZZddZkOGDPH3hEg1MD683xyzt9S34o0lHOXvA6JrDzcFJHM9eqEITe3DtWyJxTbqhx/oFTW3QawMB1IzTecdo7b0mQiMfRxzqIjrn+o342MC14RPJdN76l7IkATxnSYzGW91e80AaSo6LAkWSVh+I3P4eabIdjASpBctl9kxfoFZKT6LQDhU+OXbmF3/M/97I4BZvCYtm3FD1uEIzeHUBemw9hF5fcHojT73E/m9JALaQqZoU/GVNLqDJFuz9dcRmv4Zo/Ie7R9dMjMeiyU+JxR79uLSlYFl62V79kTviEvc0FRMl2zvOdfsJ66va+8uEv6XtMGWLkHaVkjRaq0ZxOzl4B0OCKSDwTlG4K6Y+jPQ3TsYVG4kIDe8xQ1thYWFIQGmOBhLIzMzgLTIotK9mfbjFpKha2TCFvqvnEb+nghp3FJ1vtjdMWCR9Vu1/+XSlQRITP8tPSO2XTMIEEB2vf26U+bsqqipnqrosCRIdHl+EwkjpSChqM8S4oNxQBZYCtH5gOOjUhoUdhl8kS3ztLmBxJzGmsF4lfFFUiYd7kMiu7+URokP6BL2pMzmuxbrs78PR8iJMoOZB9xMDnZJGerD83Vt0n2VxMl6KqGZj3ntI101792CF7VW4Qt6MMMoAIPYA0IS7JRYpo1xYoBxIEXOOSOaC9LjX61CxuRFTVJEDa/zVUUka/DcGCRzja+S+c3YnbuU/mE2B0lYu7Xg2igo3aWFMuxDMTVqpKyXkqrouCSojTRFq/pdUxcB36HtYfY6LTCOBOm1GQsK0bmAGDA0XO0TDxOdCElpqWyjSf5FRLgNZq0uQvGYpZcUR+z3C80uKzabJzOZHzDBt5Ls3dKz6Y6QRCDg33mQdb06fcYMjxP3lIEeU8cEmiBaE9pTqiF42fTAgSAQiIoTZJp6XhwiExZxgDssCh1D0GxTxwRDrBsg354/JOjkgkWbGnD4NxrDMs1uFrGNFMHR71LkTMkhGV4mEJmg60KAg7M8u7GnZ6Oa4YhJBNpngDp9huRTFR2WBCGXvpjDqaZmq14QM44PPMCL1NNOLzP7VMT38TwJ3mIJYXmcV9gHIQRrmi0SYt2ExKW+8wQZQdaCVgDJClhwabjv6EA2GQMM4kIGiijv7B2xvVoxiV9rEHh7ocOSIGDusJ9ct22xhmvwviE+/i4R6U2VtveNNL1PRXofzzWbqM9LRHqMw7hxQA6MExKEhsV64naH6CSIF4kVqGetiANzInZmfozl5F8Qje2XuWYHoVC04iVxxAQkm6bP7Zkktano0CSYK62pv8zHDLRBpvvU2xNtg4C/EBY0UdIKou3NWx41bz8S6X1VZPbdErPZ0v7witXquITyzD4KZDBcZTAOMwxvXqJjQ6zT4JW7TC/Rr448yCYTzPpoCYIiCJF5RjLJjA7ANdm4xmsyi/+7LOosaQ1QTJku5Oqvi6TrXgib4XqpiA4bLA1I+/OBiOe1GWYzSs0mkVBSZET2ixXpKwWgRU9fheSorN0HR50aePAwZZl0vqTKrFgCxPXgslWENtE1/d/peTJ0TnaW2Za9zIbmmW3Sw+yQ4WYbdU9dYQnRdpggmTpgdjRPHwLws2zP3h4UafEsCxwhr0pGr1S7+EZ/AyubzhZ5dV/1uX8Xz27oGbEjpRW2dJFz8antP8dfMlRlD1L7+WCo2ZAUHerp0CQYgJeJmUlCgrf08L/XCx+/UIS4OJopI/C6OXYJPjcWKpd8bZuKpAhmZYxvsTYSxTgNrzECI40RYchUWTkivq3IpNvTbJT+7jMkulSAK6qpdQuxzuAnyem+CyTDEIfkZISsgrf6RLPLNBeQ0VPS/i6XZTJfHXZAgN1V5vYyf78T8c6ULCN2yHKhyOr3kvNzClq2zOVM3cue882m4ngRdtC1Xhqg67aQXNsK6wQJxmO51LKFMlFnlJu9P9fscwnXlBKz6fq+jJwHvIwmvBCEBFmsX9q1MWSFia7jC0R6w6TpoeHt1M9sR20D1dv2zo5qliFCAFLVM23uS1kzyE1fdYwv9I2uNNdUIKaz1QZuU1kPSxEgS3RU5YumartKHfDRksF31BYuJYmH2koAZqrsI9m8SRbKBvrc1H6Zy7wl8kMTxEJCxE/X9Qi9CecOryUQj8e2QC/6JZnN30rQpooMvygyK1MvSCBnvRnb3Jfkn6+inKOmQIL7MwnwehK0rfV3f5kCrJNMfCBbiBDxYDiFNXhfImpa8so89TskO7+VRtgUkE3mTZHQbdL+3pXMM24diPVwaWRXFXr2i9yomY319KKOubzYbKKvEQKslp26mZ1fGE3g0JS1P5iNcpWI9c+6PllkyGj9oO7jWCkCqSr66zwJJgLm7Jciw+/0sj6S2v6ehG+RhMGZzcHTWNMb4zg2ncMUzR4ivt0Hme0qTW+ker1tZOomynwdIkQyPCnN7WTJJePOmKcs1fl3EUhhI9ljqszbB2X+/lXb0oDU9A9lbS0yu1Xa3R7+0EssyPpyvtrCpzGkyTlkiT5BRHim6jFMnxsT9kIWm+1mR9c8AWiWbwyUUtBK8YdtgU5JggHQAEskODg4CGD+UCr8RPVgk2Q6L1SPzPrXq0mMzkHjY93jTSQgm4rwRg8w276PWXftyydspxHCEiJEPJZLtnYSgfzPdyiQPfoudaasVJdMG2M9EEzft0Vkd0pup0qWXbp97YfImP52oOT0Sm2bqLxEfKpDbYFMVxaD/5cIlAXRg8sRQsOaxxczBU/a4WAJP57sRGBWCFrg7Ut1vsqjkLH5nj3UO2I9aTQpik5NgomA1/dtyFA98hQJBI6WWeqheUh9JQR7qFfb1Ce/MYOtPgM0vyeRjRAhGgWJnt0gArlaskc6LdA/y7MbekTsF9LGYsmHrDMkQX1J2tu7YsIJlfoRIfRbMyQ6QNrXxZLV43Vu/LrFicDY4RPlIsOiKKHFDhNBhqOyo4slHaR2wFilI2Zf8AmvuU0EiBleitNQu8mC82B/s0N1fCojJMEk4KEwZlIuTXGSBJPgz027RxdCCsf1QrQVyMV3xHyzr0RuyCA8Q2qrESIgHBUMvRTph2kiwGKxJmFiAfEBd7w65oNEfNf52l9TemeKmqE6nFXs2avLIuaiIKI/RaGy6Pj7ZXi2YVdpeNqlqrgQn+n6gDPEXU51Hpvr2VN9IykdKA1CEmwEeEI8pDCEJURbAzl7W2Ry/ALP5lRJ4ILWqY8slwn4E+wGhL6QpACy2V1a1zEynw/WX8JcmiuymOYsqP64TPP3ZBHhXHQhNjEFogvwld2+4urA962kKT41wGxDSDjFEZJgiBApBgjlFbHQxcURmyINyyXfTQJiWFl9blRmdK3h3aQx9mvF8be50jaZUXJfidlkfS6TlhjkHlwFPhsy9XOLHLO/9DLbUlZTc0m4PRGSYIgQKQpM43tKo+N+C0U8JF6ltRI+Q5qsvtr2FuEcnOPZFlmRJoWyNBWMEX4iDfVZaYYfihTFz1FCxPzV524i4QH6yzzkMwui0+Q6CkISDBEihYESWKx/GKdb6pMg09r6StsbJA0QZwl804b8Vw+IAmcJ9SAUpkgbs1LwDZJOf31pfizF2YH4zyEkwRAhOghiG2p7kN6aEE8cqVCn5iAkwRAhQnRqdDTNNUSIECFaFSEJhggRolMjJMEQIUJ0aoQkGCJEiE6NdnGMLF261L799lurqKjw94h909JswIABtsEGG1hGhj8BN0SLweuMNCbdR4gQIRzahQQ/+OADO+WUU2zbbbe1Xr16WV1dnc2dO9fKysrsnHPOsX322SckwlYAr/LHH3+0bt26Wf/+/UMyDBGiEWgXEnznnXfs5JNPtn/84x+21VZbuca6fPlye+655+z666+31157zUaMGOEfHaK5QNP+zW9+4zqaP/3pT5bOzPsQIUI0iHYbE8T87dKli2VlZVnXrl2tR48edvDBBzut8JNPPvGPCtES8FwvvPBCO/vss93zDhEixJqRfrXgf24zTJ8+3V544QU7/PDD3ThggNLSUvvb3/5me+yxh2255Zb+3qhZ9/nnn9uUKVNszpw59uCDDzrtpm/fvv4RUXDcokWL7Pnnn7cnn3zSnQMRcGwyLYhzioqK7L///a/961//shkzZlhhYaFNmjTJ1XPgwIGrEAgkPXHiRPv+++/deQ8//LDbP3ToUPc3AOVi3lPuU089ZZ9++qkrp3fv3glN/aAeHMs5P/zwgzNhc3NzVzNjq6urnTb9zDPP2LvvvuvK5VkkKhdzuKamxj3n2HK++eYb++yzz2zQoEGWmRlNeY02/u9//9sdRz3jwbN99dVXnQZPR8Vxffr0CYcuQqxbUGNsc7z99tve+uuv740fP959r62t9WS6effdd5+nRul99913bn8ANWLvoosu8nbbbTdvyJAhXnZ2tvfEE0/4v67E7NmzvdGjR3vdunXzRo4c6cqSpumJWP0jVgfniHS9nJwcb9iwYZ4I09tiiy28ww47zDv11FNdvWJRWVnp3Xbbbd4uu+ziiag9EYB37bXX+r+uhAjD22uvvdz1N9poI2/w4MHu2HHjxrn7ice8efO8sWPHehtssIF3/PHHu+fDeeoY/CNW4vbbb3f1POigg7z999/fKygoSPg8RNje0Ucf7Z1zzjmrXfPll1921xCJ+ns89z769evnvfLKK/6elRDxeoceeqgn7d3bZJNNvPXWW88952uuucYTefpHhQjR8dEuJCgtxpECDfjYY4/1fvWrX3m77767a1zSxrwVK1b4R0ZBA4ZopNU5QoMwIAcaeYAlS5Y40tppp508aVHuNwjrscce86QFeR9//LF/5EosXbq0/pyvv/7akTHlQjLSHL1zzz03IQnefffdjjRvvPFGb+7cuY7wYlFeXu5dccUV3uabb+5JA3T1557+/ve/extuuKEnTWq1e4SM8vLyvC+//NJ9nzlzpnfPPfd40nzd9wCLFy92BEynQBmULe3Rk4bmH7ESAQlecMEFq5Egdf7lL3/pCJJ7hMjOO+8878ADD1ztniHAk046ydthhx08aYDuOVVVVXlPP/2065QeeOAB/8gQDWHBggVONtlkabjvsTK8LmPZsmWeLCsnN8nAb7LenCzTDuLlsL3QrgNH+fn5biwQU+6II45wJqy0m4TmlRq8M5H5XdqKiTBWMe8wlfXg7Oabb3ZOFX5jvPHII4+07bbbzt566y1XRixENO6c888/36T9ObOSck888UTbcccdTY3dP3IlKFeEYiI4k7boTFbuIRYLFy60//u//zNpdO47ZvkXX3xh0uyceY3JqxfufguA+SlN1HnHH330UTc0cNxxx60yXAAwj0VGrvzLLrvMlS1StDFjxvhHNA7Uee+997aXXnrJ1Kk47zwmLs+LIYRYYKbjrOIa3L80Rvvqq6/ceyOkid/in22IVaG2ZXfddZcdcMABpo7J1PGblAD3TBn+iJeHjgApBDZ//vxGvXtC4k477TST5eXvWQnO5xnwLM4880y74YYb7PTTT7f99tvPXn/9df+o9kO7kCACwTiUtBm74447TOalu3mIJdkAPoQESUBsiQDxqLcxaVr+nigYC5SG6QgvXtDUE7vxNcgpFlxj4403duN/iUD9IbOePUkmvjoQDq4n896kQdVvkJo0OTcOF0+w1JFOAAJHCHbeeWe75JJLHAHFAmcSHvSzzjrLPvroI/v5z39uhxxyiCP5poJzuQdpwS5siWeRiEyl2br6SpN1HURwPwgqz51xwZKSEv/oEMkAYWy//fZuHJlnee+997rO9ve//729+OKLTq46EujYabfI+ppA26OzTUSYjJfzDGSF2JtvvunGuRnzloVmstTc+Hh7ot00QTSKRJpWMkBIEFqs9hcLSAnN8u23316FvCAk9o0cOdKys7P9vVFARpAKDoLYuuAggGAaCimBrJPVhbg8SBSvLD3ZG2+8Ub+hBV566aVOo4sFwoFzBeKE0HAQ4YCQyekfEQX3xrFojDQcmfmOhMaNG+ccF00Bmhwe+ccee8xpcwhhImLHUUTHcMIJJ7i6xd8PZB2vDYdYHZAcGj+yQaeHhfKHP/zBaTwQY2M0qlQCkx7+97//ufbSGCRrL7S1nJwcF85F2wFYI1dccYWzigoKCty+9kK7msOtCbQ5GvHll1/u4g0nT57sNBwaKJrMvvvuuxqpDR482AkgMXSo43iD8ZriIJ81a1bSlwYa+g1zHU0NYoKA8RKjBaDxYiKjNcVrvJDlrrvu6npXTGw+49Wm7rFAe8WMQoOmDMgd8xgtrqmNCEHD/OWeJ0yY4AiRTiEekCxaH5oqZMn9UA+eG2YdJk4yDT7EqojX9hj6ofNDS2KYJRE4h98ZgsCsbAzp0Fn+9NNP7t0ie5TBX95dQ8BS4RpER1TEzOiKBXLGO8cKQHlgKIWojeaSOHVDnuJNZZSW0aNHu/bUrlCF2hxqSJ40NzfI3hgwqM+g/eGHH57QWxqAwX4cEpSN4wUPKt5iaS/+EaujuLjYO+OMM7zu3bs7zywD/TgMRA5ufyLHyE033eSJPD0Jgb93dUjYvD/+8Y/Oiyoh96RheZtttpn3zDPPOMdCPES6nkjIOU74iyd82223TegplxnlyuXe8GJLs/D+/Oc/+0esBNf59a9/7e4j3jESgPvBG33aaaf5exJDAu7dfPPNzoPOM+J+8MDjHGFAO0TDECl5J598snO2xT4vnqssBm+fffZx7yIe/M4zltboSXN3Tr4jjjjCkwaW1KmCk1AapjdixAhPHZi39dZbe9KonBPs+eefTyh/XId2SUQD16H9HHfccZ5I1D9iJaZOneqcc9JqXbQAdTrggAM8ka5/xOp4//33XTQFDqF4iNy9UaNGeVtttZWLvMBxRLtLVM/2QLvNHcaRgVmAI2JNoEpoaWg7DMQ3ZKZi/oo4XM9JT8IYIaZyIk2FY+lVKY8ekx4NrYd6ocWBW2+9tT6ODtDDUjaOC+qSSHMKQH0Zz6CX5B6oi8groeOH3+lZP/zwQ9djY5ZKeG399ddfTetkfAWtgPtEe5AAufHUwJSIBT069Wc8NZn2Slncj4jX35MYaAbEHXI/YPjw4a5+Db2PEFHwfn/72986zZ5hEuSG90hMK9r1NddcY2PHjl3lHXEOsascz1gsY7hoW+rwXDkPPfSQk8FYUCZjygynMOyijte9swceeMC1ObR3xqbj39krr7xi6izdOBzWAW3jnnvucX/5TUqCf2R0uAjLASvn7rvvtmuvvdZdBzmMH3IKwJgz94E1ET8GjzaJLGPd4OjjvmmHWHZsyFi7QhXoNKDHOf/88507PrZXJQyFcBC9FH9P+yJZD58ITTk2Gehx0QRCtB14T2eeeabTnrbZZhunTaPBq5G7EKdE2jSaIeFbWEFYQGhHbJMnT3aamEhutfMmTpzoNMD777+/Xvvn2o8//rjT3h9++OHVrAKsIbRLtljrhrCxY445xoWXJZIz4kmxXLjmmtCQJhiAe/z+++89kbsn0nfxujvvvLMLm2lPdKqBHXq3adOmuXFDNDZ6OMZEJEBOK2TmytpAQ+ON8WjKscmAlpxIOw3RusAykLnpNCzCmnjmt99+u9O8Yq2NADJr3dg2VgpaGklH2G666SZnLRDShOYXQO3XzWbCSUUoWaDtISNo+ThjEoGymAHFmDDj0AEIG0OjRMtLJGdYIVxTBOnvaRmwCrHC0HrRcnHYMW6Nlhw/Nt6W6FQkyAvHdEAYiflD9SZ2DpWdeEOcDiFCtBYgCzzyJA2hYTN8gWnLUEQi4JEPnF+QGE4CNpxmOO8uuOCCVULGICq+Y8IydBELCDh+XwCuwQapxQPzuzUAWYL4YSnKnzp1qnOKBMcEYIiHUCwcnCgn7YVORYIIDb0jmp9MDheyABkSpsK85vgXFiJESxFoTYxzEclAmBMaD+Ni8SCMinhRYkXR7IgsYDwPbQntjTG4eA0SwuQaxCGiPUEykN9//vMfNzaYSKMjIJ/4Rc6BkCBMtvfee8+N43GteIJaEzie63JflEUYGnWN9/Ry3COPPOLiARlrD54Pf4n7JXyG8ez4kLK2RLskUEglIBTEF26zzTYuUJheFkdKONgforUBEeEQCfJl0rgJWSEhCA4OHGexJIUMcgxB1QQUQ0YksMAcLi4udkHyyG4siKmDWHDo4WhDw8K5QggYpLTnnnvWz44KgMkJORGXigODsglYRkuFxHDoJHIAMoQEiR911FFOw40FmhshYQRSE1uKY4ZrQ+ax4B4hvCeeeMI58SBt6k2oGPsIHSOQmtyj7QY9wBAJoBflfwoRoulAfq6//noXAiLNyN/reSUlJS5s5oQTTkjoHMFpRUgK4TWEyeBcIAkHzoxkoHzCanbccUcXlkX4CskxcAK+8MILCcOluM60adNcSBWhTzglCLOJnxcfCxGmC1ubMmWKv2clqN/ee+/tnD/U+corr3Rz9ePBc+HaEyZMcHkEqC/nUAccNThUEtW3LdEh1x2myvQmbaW9UTa9ImYIwdWJTIrWAL0gZYdOinUTjLnxfuPlNHAw8N6TyRbHIB9ocBy3JllHZjkexwlhK5yDVsf5DQ3zBOdwDOOLDV2Ha1BmsnpTDiYt5aBtNlQW9889Mp7JGCnjpWwNPZO2QkqTIJHsqMqYrLEPlP3EETI5PQAviFgmXirxdg29+DWBsjbddFNX/i233LJGAWwOqCc5FhkrwlwJESLE2kFKewIIJGZ8gDGLAJAHA7qMH0BWARgUlgruxmFag9fpTROFMbQWGLshQJvAWQaSQ4QIsXaQ0iRIbBUqNl6ugNggOzJPkEiAwdwA7Ce+igHVlmiBAdpaQSalF4PBEDrzKEOECLF2kNIkiCsfQsONH4xHoB0S5EzMH1lN2AcINCVRAUkSWmtMoa2IkLqisR5zzDEumwbaYIgQIdYOUpoEGWAl3x5R9MEAbpCMkTRPfA6yZDAfllRZZGRJBsgU1z1xgmiXoCGiwxyGfHH5E9FO7BNoKTmisQYzV5gfSqLThsA9ovkyBxsCJZ0VwwHBnN5koL7MHwUQLfdAgtSg4wgRIkSKO0ZorHhpMXtpwMQgHXvssS6OioQDZK4lPxtEQr49SIEMzPGODAiUGCZMT7xPbMRQMX2JKPz4RAQQH3GExHERL4UjhjIxubkW0f+JFiZqDPCIkVyWe2HhJGKluCccMJSdCHQC5557rgv0Jn4MjxrjiGjJjJkSt8U9xYOMxtQbjx3X41VzD0zcJ3A3zAkYIkSKa4I0YOYxknEC5wgEgHZIoClBpUxHIvAUksMzzLSbeAKE0Mg3yHHMUSQTBmOKQVr7xx9/3D9yVUB+aGjMN8aLCxFDuASvQsKQWXNAlDxjgeQIxGznPgjFoY7JNDSuhTf82WefdcRP/V9++WU37Y9ElMwpTQSSrrKaHM+L8rl3CJxgWp5HrGMpRIhOCzTBVAZ51MgTyIJMrH529dVX1+cdYwU1cgmSF41gT5nHbn8sWPCFIFJpPu6zCNNtMq3dymlk54gPEKV8cvuR8YMMM7EgWwe/yZz29zQNnL/nnnu6QNWgLmTnGD58eNKAWGmiLqj0qquuqr93QDAqeelYWCkRuM6YMWNWyVsn4qtfPW/27Nn+3hAhOi9SWhMETO9BkyG7BeYuGaMD7y+aIL+TmQNtifmQ8UCDxGGCJsS0I4Kf2YgBZEyROYqJ0tSjlZEBOD7VN2OUlBcbttNYMCcUbQ6tlQzNTI5novzFF1/sysPRo3fiH70qcKCw8FSs55swHu6ZDDiJwmw4lnyGsVOg0D6Zb9rcewgRYl1DypMgXmAmjmOGktSTQOgAjGkxwRwzD5KIn1cJWC8DsoAwpUk5k5bp0piFN954o/vO3OF4QCDM3WQ8LQAEBRFTXmOSw8aCcyE/nDMkv4T4WPXud7/7nasD43qQOeN9iYBTiHNjAfEzVMA9Jopp5JqY37GmO/tYcL459xAixLqIlCdByIgxM0iOfH+xWg2fmZxOY0ZLih8PBDg9cDxAFjgFIFRmg0BuZMmF6Cg7HlwXrzDOFDyyTO0hxQ9ERfwiTpOmAE3t6aefdvUkRxxaKcuOssnMd6t4MUGdTLuJADkyfolnmbpQJzRZsm4wUT0RcJYwXsgYIFofXmaImPx2aKGMR4YI0dnRIeYOo+mRSQMCwpSLBV5eUg7hWSU9T6IYQeIK0bZwcKBZohmhIWESJ/L04jCAKHGKQKIQGGZx4HzB0xyf5nxN4Nxf/vKXbu3gRN5c6oijg/uj/Fiyh8C5RzRWFoQigweEhrOE/GuE2qDZxYP7w+zlFTOXk43VwkipzmwVNOsQITo7OgQJQlh4RPGoJgrrQENi/i0ElQjcIprf+++/78gI0xKyIetvIhOa40kzBNFBfniJ0bwIxIaoEpnPawJhLmhlEBPhPfGAePEaQ3LcJ4QVABJEe8QTDDkSM8jx3DMxk8lyrzF+yjGMPzLeyD0QS4kWCpG290T1ECFSER2CBKkimhLaTqxjIABaEaQRqz2tS4AETz75ZLfATaLF0pMBEsT8JwYxJLwQIRIj5ccEAQ0YszQRAQLGBNdVAmwNdIB+LkSItYYOQYIhoiE7TSUzTGa2ECFCJEdIgh0ADAOwdmtTQ1oY02zO+GWIEJ0JHWJMsLODV8TUQDzKyYYE4hGcw/GJ5hWHCBEiipAEQ4QI0akRmsMhQoTo1AhJMESIEJ0aIQmGCBGiUyMkwRAhQnRqhCQYIkSITo2QBEOECNGpEZJgiBAhOjVCEgwRIkSnRkiCIUKE6NQISTBEiBCdGiEJhggRolMjJMEQIUJ0aoQkGCJEiE6NkARDhAjRqRGSYIgQIToxzP4f175Wcdwcf84AAAAASUVORK5CYII=;" vertex="1" parent="1">
          <mxGeometry x="676.0000203450522" y="170.5" width="321" height="151" as="geometry" />
        </mxCell>
        <mxCell id="PHb7f1i5PLg08WZEu7bd-3" value="" style="endArrow=classic;html=1;rounded=0;exitX=0;exitY=0.5;exitDx=0;exitDy=0;entryX=1;entryY=0.5;entryDx=0;entryDy=0;strokeWidth=3;" edge="1" parent="1" source="PHb7f1i5PLg08WZEu7bd-2" target="PHb7f1i5PLg08WZEu7bd-1">
          <mxGeometry width="50" height="50" relative="1" as="geometry">
            <mxPoint x="325" y="231" as="sourcePoint" />
            <mxPoint x="375" y="181" as="targetPoint" />
          </mxGeometry>
        </mxCell>
        <mxCell id="PHb7f1i5PLg08WZEu7bd-4" value="" style="shape=image;verticalLabelPosition=bottom;labelBackgroundColor=default;verticalAlign=top;aspect=fixed;imageAspect=0;image=data:image/png,iVBORw0KGgoAAAANSUhEUgAAASkAAACZCAYAAABzJMxDAAAAAXNSR0IArs4c6QAAAARnQU1BAACxjwv8YQUAAAAJcEhZcwAADsMAAA7DAcdvqGQAADamSURBVHhe7Z0HYBzVtf6/7UXdqpbcZFvuvVvuNhCKje1gMNXJSwKPByT8Q4AQHgkkgYQkhCSE8Cgp9GJwxRhsY4MN7r3JXbIsyZbVy2pX2//n3B3bkqzdVddKuj8Ya2e2zcze+805Z849V+UlIJFIJCGKWvkrkUgkIYkUKYlEEtJIkZJIJCGNFCmJRBLSyMC5pEtgdbhQYbMjv9yC82UWpERHIj7SBKNWg3CjHnr6KwlNpEhJOj2nC0rxwtrdeHdbBqwech68Hmr5KujgwYgecVgwpj++MzwV/RNjEG02KO+ShApSpCSdmiO5Rbj15dU4cbHMJ051IbEC/W9Qq5EaF4n5Y9Pw+I3jERNmUl4gaW+kSEk6LR6PF/e/tQH/+uYo6ZObWjtZUWpSJFYlbvYsWjWbPwmWXqtFIrmB988aiXvSh6BHtwjlSUl7IUVK0mmpsjsx5dn3cCi3RAjS6F7xuHZYHxi0GuSWWrDzzAVkXODn6ukCag0mpCbgqbmTMHd0P2WjpD2QIiXptJRaq5H26BsosTmQGhuJ9Y/fir4J0UKUnG6PELFtp8/jb+v2Yn9uMYorq64SrDCDDv89cwQeuX48kqLDyBBjS0zSlkiRknRaii029Pzpq6h2ezGtfzI+/el3EWnSK8/WZvvpPLz21SF8sOM4nOQm1opfabQYlBiF700ZgjlDe2NYchwMOt/dQJUUrVZHipSk01JSVY2+j76OimonwvRa7Hz6bgxJjlWevRqHy42jeUV4+N1N2EqiVatnkBixHHFAPSbchFizHkNTYjGYPm9y/+4Y2TMROq0aGnqdViPTD1sSKVKSTksFuXljfvUWMosqyDIC5o/ph48fvDmoiFjsDryy8QD+vmE/8ipsgNulPFMbtVotLCl2AQ0kUAMSozGyVwLS01JE/Gt070RpabUAmmcI5bFE0qlQa1TYeDQbpwrKac2L3DIruWrdMCiANcVwYucUEhpeqh0OnK90wO32wM3XcxYdRXj4+s6Lx+MRVtgFErQDucVYezALG+h792dfJMvLgFiyvDhYL2ka0pKSdGqW7zmJ+978EiUWqxCXgQkx2PjEbUiOCVdeEZzc4kq8+vV+bMzIwcUyC1laTtgcLlidbjbQhJWm/FMbIWgaLBrTF0/Nn0TuYRw0ZH1JGocUKUmn5/GPNuOF9fvIbfPlSi1JH4zXvn8tDDqt8oqG4SKLqcRiQ7nVgUpyCQsrrNidlY/Nx3Lw1YlceEiQ4CHX8KoupUKEQYfZw3rh5bvmIEXmXjUKKVKSTk9+eRXueGUNNp/MFQKiJ3H6139dh7vShyivaDrs5rFlVW61Y8vxHKw6kIlDuUXILCj1veBS9yKriv9LJoF6au4E3D5xEKLkEJwGIUVK0iXYeioXC/62EsWWarE+vFcilj80D/04b6qFOZRTgJV7T+O9bRk4U1QhYlY10Wm1uGVsfzy9MB0Dk7opWyX+kIFzSZegJ1kwkSYDNpw4D7fLhYJKGxx2F24a1e9SHLzFSIwKw/SBPbBk2jB0jzbjZH65SIO4ZA+waB3NK8aHO48LkeRFxqr8I0VK0iXgVIBhPeKQV1yO/ecKhRuWcbEc/eIjxfaWhr/PSG7lhNRkLJ4wEBFGLfZk5sMhjCqfWFkdbiwji6vMWo0pacmNjpF1FaS7J+lSXCi3YM7zS3Gcx+yRkHSPMGHnM/e0+kBit4dEkayn+95chz1Z+WLdhwpqtQrXj0jFS3fNQt/4lnc/OzrSkpJ0KSKMehGw/vxQFlxujyiGl5YUIxIvg43Lq7I7xPu2nMhBXqlFCFtDi+XxZydGmbFkylCEG/Q4fL4UVdUOesaXa3UqvwxfHM4SaQp94qNEdrvEhxQpSZdjSEosWTMXcLKgggTCg1MXy3DzqH6IDjMqr6ifSpsDT63cjr9+eQir9p7EkbwiXDOkN0z6hrtpHHua3D9ZJJXuzryIEnL1LlFcZcdnB86gd1wE+ifEyOE1CvIsSLocWhKKh68bhzC9zwo6WWTBqn1nxONAxJJreO+0ITDADZvDiZX7TuGDnceUZxsOW1U3jOiLbb+8A+N6J4jhNQKyqPju4+2vrcMLn++G01VPkb4uiBQpSZdk2sAeomwwx4TgcuDt7RkigB2MG0f2oyUVKo1WFNU7mFOoPNN4eLjMxicW476ZI2g3rnRFlduF367agQfeXq9s6dpIkZJ0SXTkSi0aN4B6gK8LHCPXbemuE+JxIDgG9cfFM9E90iyExd3M207hBh2ev3Uanpo3AREmA32mLxrldLvxzvbjuPffX6BSxK66LlKkJF2WmYN7YmBClHjMNadW7DkBK7lxwUiNj8Lvb52CKJOOxKp5tdA5VYHzt55ekI7fL5pK4nklEO9wuvDWthP4xcdbRDysqyJTECRdFg81/VX7TuPWV9bAQ5aLSa/BnmeWiBpRDeHguQIkRYWJ5M2WgPdn5d5TWPL65+Ku46V8Kh6k/MNpQ/D3e+aI3KuuhrSkJF0WDmDPGNQT8eE8hk4Fm9ODd7YdFWLRELh2VEsJFMP7s2BsGl66ezbCeVyf4vrB68abWzPw5CffdMlguhQpSZeGY0IjeiT4BIHE6eO9mTUSLdseFqofTB+OvyyegTC9TtnKBRzceH3LUfx1/R5lS9dBipSkS8OB8OuG9yE3yhcLKqiw4uuMHPG4Pfmv6cPwp9uniwD/Jay2ajy7Zjfe2dpwa68zIEVK0uW5J30wesT5AuiVVhuW7T3R7iIgLKppw/Gb706BXn9l8ohKEqqH3/0Ke7Py2fDrEkiRknR5EiLDMDk1kVw+X3fYlHEOuSWV4nF7wlYeT6X1XySiV+JTXpRV23HXa2twvqz997EtkCIlkRBL0odAxXfTSATOFFdiX/ZFetj+pgq7e3+8fQbmjuxbS6hOF1TgsY82NyhloqMjRUoiIYb3jMf0ASlCCLweL/60dreSBtD+8KDol++Zg1G94moJ1fK9Z/Dyl/t9650YKVISCZEQacatEwZCwxrg9WD76Qv46tg535MhQK/YSLx4xyzER1xJHnW4XPjrur04V1yhbOmcSJGSSBQWjk1DYtSlWWS8+NuG/aiw2ZX19mfmoF549DvjqNcqWelkTV2ssOL7b3wuhtF0VqRISSQK3aPD8cCsEVBpfXfTNh/PwTtbM8TjUOG+2SMxd0Tvy24fx822nzmPzw5kivXOiBQpiaQG984cif6xPHhYJaawenH9viszv4QAUSYDfrdoGuLDufaVT6jsLg9e+HyXyPHqjEiRkkhqEBdpxhNzJ/rGyJGVklVYihv/vFxMixUqcPXOu9IHQ6ckoPJ+bjtbjI92HvetdzKkSEkkNWDbZMmUYbhheB+o1LTmBU5eLMUTH21GRYhUIuDKCc8tmo5BidG0onRhl4OsqT3IKe58uVNSpCSSOmhInP7zo+sxkiyWSyLw7t6z2JSRLR6HAiay9B65fpzi8PnILa3A618dVNY6D1KkJJJ64BpPf71rNrpH+6oceBzVYp68UOKW8QMxf0w/ZU14ffj3t4dxMj90YmgtgRQpicQPveOjLosU4/aGVpkUruDwg2nDLud3MhfKbfjPN4eVtc6BFCmJxA/FlTaUVCp1z9VqDO7e8pOINpfZQ3phQp/uHKjybSAhfW/HcRRWdp47fVKkJBI/nCuppKXct6LSYA4JQqhh1uvw0pLZ0NQoO3y+1IJfr9ymrHV8pEhJJPXAQ4v3nr0Aj8pXrrdPlAF9E0JzdmG28Cb24cJ9vu7MZWY+3XeaxKpz3OmTIiWR1IPH48E3J/JIrdzClVo8aZAY3xeKhBt1WDJ12JVJSkmkcsutWL73lEhI7ehIkZJI6qGkyo795wpZraDXqDBrcE8YGjilenuwZMoQ9EvspqyxTnnx7OodwvXr6EiRkkjqYeupPNhdPisqymwgl6phM8i0F5whf/v4fjUC6F4UVFZ3iix0KVISST1sOZ4Dt5tcJS/QPyEayTERyjOhCVtO3yOXL4nnAaxxp2/F/kzkl4XOkJ6mIEVKIqmHo3nFcJOrZ9DrMG90GniETCjDQ2V4eq3bJw3mNd9GYu/Zi1i9/7Sy1jGRIiWR1IFL8uYreUZGgw63jR8gRCDU0arVuH3iICTWmFXZSdYgTx/PgttRkSIlkdShrMoOazXXDlfBpFWHbOpBfUzo2x2T+3Nyp9K1PW5sO5OP9YfPCpewIyJFSiKpQ35FFSqrHcJr6hF9xSrpKDw4ezSZVVcmFq12OPD40i0ddq4+KVISSR0sNifsLp6EQYXkqNAOmNfH6N6JmJ4aT7t/xUXNKizDlhO5ylrHQoqURFIHi90Bu9NXMzzMeMUi6SjEhBnx+E0TYKg5+zEdz6ubDoZUzfaGIkVKIqmDzekSAWe2RKJMXKY3OOVWOw7lFIbEhAhsQE0d0ANDU2LpsWJNkau3dM8pHDtf4lvvQEiRkkj8QR3bUh3c8mDr5LZXVmPyb99DRl6xsrV9iTTp8bMbxsNkMChbWLxU+N2aHR0ugC5FSiIJgC82FZj/23gAG47mkgXmxUsb9ipb259F4wdicFLUldiUx42tp85jx5kLvvUOghQpiaQOXJqXpzdnLpQFrst0ILsAr28+TFYXuXm0bDyehz1Z+cqz7Qsfw/2zRkJ9SaSIkqpq/OebI74hPx0EKVISSR3CyVUy8Ews5BbllvkfoMu39D/ckYGsGpMfnCuqwIc7j4XM7f7rR/TFpH7JyhpB+7Vq7ymc6kAlhqVISSR1iDYZlLInXpTZvX6rXFrtTnyy5xS9rHY296q9Z0QgPRRIiQnHXZMHQaW+0tULad/+ufmQshb6SJGSSOqQTB070ugLONvtDqw9lFlvsHnjsWzkcCmUms+RYGUVV2DZ7pO1Nrcnd6UPQVpCzdiUBysPZuNiCM0lGAgpUhJJHbqFGUV5Foaztf+z5TC5b2K1FmsPnoWrntgOF8z7w+e7URki8/RFGPX48+2zoKkRm8orLsMj738lhgCFOlKkJJI6cKA5vV93+qsmh8+Lo3kluFAnNuUh1dp3rlCUGb6ETqu5nJeUU2LBBzuPicftDe/RrCE9MYeWS9aU2+3GJ3tP4aa/rcSfPt+FbLL+HCEaTJciJZHUw8JxaUJ02Gcrt9qwP7tAecZHoaXqquzthWP6Y0QP34SiDpcLr361/ypxay94wobfLZqOHjGRyhbASaK0/WQOfv7xVkx45h0hVkdyi0Ku5LAUKYmkHib2TUZKtFlYHi7qs8v2nPANOla4UGqFpca6ngTtwTmj8Ld75sAgYu5eHMwrp/dxbCo0glNj+iTizXuvR4/YKEBTY7iPx43CSht+uWI7pj73Pm57+dOQSUplpEhJJPWg12mwaMJA6iG+uuYf7al92z6/vOpKzImEjCfq5KJzE1K74+70Yb7tHhdZJ7vptaEzBx7Xat/+1B14et4EDOoeBy1X81OOkQPqFTYnVu0/g5l/+BiPfvA1sgrLa7m07YHmGUJ5LJFIFDhyYybh+Wz/aVTZnXBTT612urBgTJp4/puTuVix75TPSiKRig0z4eHvjEWUyYDYcCM+2nlCjOOzVDtFVc9rhva5FA5qV3gXeMjMzEE98d1x/UXFBC1tzCmphJ1NRiFJXljtDmzPzMfag5nCrR3VK9GXO9YOSJGSSPyQGGnGodwiHMkrEu4bZ5+P7BWP1PgofLLrJL45dV5sZ/XpFmbAT64bI9y+lJgIlFfZsPNsERknbmQVlWPKgGT06HYlHhQK8F2/4T3iMXdUP9w5eTDiwk24aLELUXLzcdFSYrVjy4kcbD9zAQO7dxPTztfMYG8LpEhJJH7QqNXoR4L0z82HhcVU5XTjcE4BxvRJwEsb9guXT0CdNj6CLKnrxooOzMuEfsnYcPgMLlTYYHG4UWqpxq3kPrZx/24QWo1alHeZTtbV3ZMGIynKhGwS1mKbC14SWdarsyUWfLLbV4Z4fGoSdDVmTG5tpEhJJAGIjTAiNtKE9UeyqcN6cLHcimV7TiO7sEx5BaAmMZs1uBduEyLkUyGeYmpMaiI+PZAJi60aOWSF9Y2PwDCyXEIZdum4BDFP6NAvLgrfnsoTbi4rlZ3+bj6Rh9X7TmPGwF6Ir1FLvTWRIiWRBICtqaHJcdh15jwyi3iMntfXaS9BosRWyJv33nDVDMfJ0Zy5rse6w2fpPU7sybxAQjYIESa98orQhYcFjeqdgCXpQ8mFVSOzsByVZBGyUBeQdch3O3myVI5paVp5Kh0pUhJJEDjONG1gD5zML0GBxSEC4l4SJ41KjTgSpqfmTcC80f2VV9dmZM942F1O7DpbgNKqahi1WqSnJQsXK9Rhq5AFdc7Q3nT8KbA7XMgstogcsCp6vIWsqkyyKNP7JyPM0HoVTFXka3M4XyKRBIErG6w9mCWqHHCG9oCEaDx4zRiRfxQIdpP++831eHvrMXhJ8Nb+eD5uGJmqPNtx4ON/e+tRPLtyO86WVIrhP5y4OrZXAt5/4CakJcYor2xZpEhJJG1AmbUaP353I97bfgLDkmPxyUM3Y0D31unUrU1RpQ1/WbcHz3+2S9xQYJc3JcqMd++fixmDeiqvajmkuyeRtAEcSJ85qJe4O7gru4g6ugXzRvUTMa+OBuePTUlLwcge8Th6vgSFFrvIxl935CwSIk3k4iYor2wZpEhJJG0EB6OvGdobp/OLRVZ3jNmACX2TQzItIRgcUxuSEieO51xRmcjGr7Q78dWxc4gLM4qA+uVJIJqJdPckkjaGA+hPfrIFH+w4gU8evFkEpjuiUF2CpwDjMX+HzhWJdS4a+OGD84SAtUTipxQpiaQd4DSGh9/diM8OZGLL/97RIaZyZ6mwOdw4U1CK4iobCiqsYjjNyQvF+GT3aZRaq5VX+ub+2/bUnSJLvblIkZJI2gkWqudW7cCm49lY+fBCxEfUzrNqT1gWXB4ew+fE4dwirDuShfWHz6LY5hTTfHE6Ak/m4MsZI2upTgllaLR4/Dtj8Pxt05UNTUeKlETSzvDsLTzrzJPzJiExqv2Fak9mvpiSffOJc9h2Og8V1W643R54eEYcMUS5HtitU6nFXz28mDWsD56aO0EE2JuLFCmJpB3h7scB5u2nzyM5Ogy946KUZ9qecnLXHv1wM77MyME5cuOEMLCFVEsiWIzYcvLCZNDBZNQjTK9DrxgzxvVJwuDkbkhL7IZRveKFy9cSSJGSSCSCE/klGPbUO3C7nMqWGpAw8eiXaKNB1M3iShCcUjF9UIoY69eaSJGSSCSCIosNU599HycvltWxniCspMdvGo+hKXHo2S0SYQatsADbAlmZUyKRCHiWnMUTB0GvqzsOT4W7pwz2TdueHItwo67NBIqRIiWRSASc0/Tk3EmYlcYzHtcUIS9+v3YPXtm4v11mZpbunkQiqQUPnp774jIx5KWm28fVIO6cNBgv3jkL0cq8hG1Bq4mU1eFCTkmFqEjocLsQbtCjT1wUuoW3TaGsxmB3ukXQsLDCCrfHi+gwA5Kiwsj3jmhTs1ZSg7p5N143PPZK6jMeqPVhUGlDrx11Jo7mFeOeVz/DgQskVK4r9bNUGjXSU7vjpXtmYXTvJGVr69JiIsXF6g/lFOKLQ2ew6Xguiq0OMeWP3UGNi75Cp1UjwmzEkMRIPEEm5bg+XCyr/bxNPugzF0vFaO6vT15Auc0OGx2DhzqBQauFmUQ1isTq2kE9sHjCQDFOicdedXno/Hhd1XA7SDAs5+GqyILHWQVPdSk1Zju81b663p5qbtw1ZvAlsfe6rbT9SkVL2givswImrdt3u7sGHvqsWg4HtSEPfZ5B64V3+KMIH3m/8kxDofe5ndTguXCbCx5HBVzl2bS/BXBbi+CuLgcc5bReChct/N0eOhZ+T100hihAFw6NKQ4qQyRU+mhow5OgiekPbURPWqeLm1pH/lMjayx5nLCe3QBX0TH/F0e1BqbUG6DtNkDZ0Hqcov7x8Hsbse4QnaeavxDtQ/dIE566eSJ+MG1Eq0/Q0CIixTkeP3l3Iw6cKxSdPNAn8snng7p32nD8ZtFUMbtGW8Mztf7fpv14fs0uXCTrKRDcVlhMubDXs7dMRXpaSouMR+pw0I/qLDgA66kVqD6zCu6yU1B5HFca7+U/AX78ep8K8Pp6MFK/N0z+I8LHP6ZsCYyXxNR5cS/s+XvgKtgLZ1kW3OWZUDlKhfDV3H/RFWopo/K3Pi69jt/C7UH8T/+otdBED4IuaQz03SfTMgHauOH0muAXZK/DgpIN/w37yQ9opeaOXEFvDId59hswD7pN2dK6VJCh8cRHm/He9mNiAHHNzq2lfvH9qUPx87kT0a8Vh/U0W6TYApnz/EfYl1NEV4I6JnoAVBoN5o/qi/fvn0sNr+2KuvPsrP/achgPvbNJZNEGbok1oB+Ek+2+ffJ24bZ2Fbh5eGxFsBx8FY6j/4LHkk0XItrOOX7Ka9qShooUW3fVmZ+h+vBrcBYehMZRLPb70tK8Vh8YLrqpIY3hGaK0UanQpUyDefh9JFzjqN37vyizSJWSSFWfeN/v/hnMkTDPajuRYlzUT5buPI5nVu8Q3kdNyeB+PLZXHN6690YxTq81LuDN9rcyC8qQkUemfSMEivG63fh0/2lRK7ktOUwu6U/e2Sjmwm9UN6Pj4ymN/rZur7Kha+AqPYHSTxfBvvNX5A1lU4P1/dSt2MebDXf2is2Pwb5+MWzZm+CyFsPuApy073xdak2BYvg7HHye6HscZLnZMt6GddVsVO76vXCVOxpcluXO9CHY+PgiXDOkN63zVp8YcT/ec7YAE3/znvCommnz1EuzRIqDzAfOFaBaWCSNh9//b7JqLlYoUwO1Ac/S1cDZxPPIRei3nrogrixdAUfutyhZOR/OvC2ig3cEOLBeuu5HsB1+FdYaIbH2hMWqyuaAZftvUf71I/CQiDYVj9sFL8f72gFO4lz904X4/JFbxfAXHkQsIGHi+PO8v64QXkpL0yyR4tgOx6Gaw2bq9F8eyVbWWpfle05i07EcnynQJLwos9pQWBk602a3Fh57Gcq2/Aye8pOikwVCxO1o0VJr4oW9d174PkPdxdCIhV27ugvX++fAd72QQFVs+QXsZ1bQT9ywK5Ev5nhl3xu78Hv5/k9DvBwWUPvRN2A9/LqypQmwpeKxKyttD88Qw/WvNjx+K15cPA2j+yT5YnF0Asqsdvx86bd4ZdMBMVlFS9GsmFQFXR3ueW0NPj2Y5Tt5TYEObmr/FGx64lYyI1svNmVzuLD4H59izaHMpu8rkRwTji8eXYRhKXHKls4Hi0DVoddQsemhgKeKn9JqdfDq46AydYPWHAevSgeVPhwqtRYqLf1VrrbczNRqDVS6yAa5iirq+ZxqwLGvWnhdMKZeD31yurLhCo6Cgyhbfg1cVUVBv4OD3RraH48uAuqInlAbommjb18bg9dpIfeyAh7LeajdVrKy/QjoZVQwJw5B5Lw10ET1Ubb5aEhMSqc3wZz+e4SPfVjZ0r7klVrw1tYjeJ2EKbesii5oXrqQ6PCbBen48bWj6cLS+HNal2aJVElVNa77w1LsyyFrys/H8J2xcLoslpOg+SPSbMLr35uD2yYOUra0POuPZOHGPy8XJ7E5xIab8On/W4hJ/Tkrt3PisZej4J+pcHNagR+E5aCPRre5H0Ofki4myPTyHSl+QlnEFbYWynMNgX+mhr6WIWEt3/4crDufaYDlp4I+aTzCp/4ehu6ThCmkIqeiKS1DRe/iMACpFWxnPkXVtqfgLDsb8LPUWgMi57yKsGHfV7b46IgixbCEcI3z//34G7y14zgsNrb0VPjfuRPwKxIrHZubzaBZ7+YTyUmbgX6R+OgIPHUzNYQAt2B57vm/rttL1k49o69bAL6j98tlW4MLVAM6hZMLffFtm06Mq+w0DKrAcUINWb3mtEUw9p4Dtc5MG4xkiBjIctKLHCEVWyUqsoxrLdwG+Bw3YGmMQBFeZyVsx94KKjQc9DX0ug7dFn4GY89ZZNmZadeMtP+0301YoKFj1pnIeoyEadAdiF7wGfTxnHKgfGE9aGGHq/QUPQq2tx0DFv1IkwF/uWs2vvzZdzF3ZF9hCb/wxR68vGGfELHm0CyR4gByocVGj/zvhEmvx8KxAxBppNYhGmA9kE1/MLcQGZyG3wp8fjATGRfLlbX64TyWwUkxYnR3IJx0zK0lpqEC50M5g0TK2c0z9JzeaDFpLZyWfBjtuX4tkEu4vVqET3oSahO56y2879yGdLFDYByyhHpE4K7lseaLO2OdCb4LOKFfMt6570b8464ZiDIb8OvVO7B0d/Pu4DdLpFhzuMRoIDi5s2dsBMb1ThKK6w+OGf121TZhNrYkNqdLBPKqbAFu/dJ+jeoZiy9/vhhjeicGbLxslfEwms6Mx1oQ9OrH7p3K3LJTFzUHd9FhEobA+8w/qzqyL7RRfZUtrYMuYaywsPzBXcZN55j+9W3oZLA43T97ND4nq2pCaiIeencTvj5+Tnm28TRLpERDDmrKqcgn1eDncychIizweKvVB7LE0JqWZF9WPp2g3ID7adSq8auFUxAXbkSs2MdAIuUWtZ07M3xnL5hIicC2MXRuHrhKjivJuf7hX1VrjofaEOnb0EpoInpCoyVX0A+i29iKaH+C9Z36UXH1uQ7A6F6J+PCBeXhg1kj8avlWMUtOU2iWSHGMp6y6Ya7PtcN6Y2BCBJ3hQCfYi9e+Oqg8bj6cIvHG5sOwB7T2VBjdMwHzyI9mczXCpPO15kComta42pKT+aU4SILvb9mfXYBqfxYh/a7BjlDcHTO2bmdvDC5LXoPSDtTGaFYqZa11UJtj6fwFcfdctqAXgnohz8RdXaGshD5co+qZBelY/uMFTR772kxLihrrpYSuBvDQnNGsQ/6hD/z6eA52Z+YrG5oH53At3Un+cADf30gn7qHrxgj3hWlukG8L7f93X1qJhS+tqHeZ/9cVYuBma3PPvzZg9K/e9ruMfW6pqPxQHzxANtjwBhYpFd+2DxE81uBpBz5TSk/7zvHR1kNUaAhwo0g0MUcVPWj8DRgxNtbZ9GTQ9oDbSlyEqcnpCM0SqcYya3AvjO+bSI/8d4DcMivWHDwT/E5cEDib/Y2vD6K6RpmJq6CGNDQ5VlQcFKt0Mo16sqQCwFdIZ4C7ezwP2RcZeVi1P6ve5dPD2WT2tn4ynnAl+Bz6Wzwev7+CxhwX3KWgz/DYQ6ezeByVQS0pPiKVitywIALcbNQ6aiUBRIoWD+dXNUGkuiJtKlI9ukXgVhIETaBGQj/c21szUNZE//US+7LzsT4jcLCOO+IPpg2tlcehD5bTQcLm100iuG/7BIIaYH0Li0Mr9xGmOSKvNsUHtaQcDgfs575U1kIAV1VwS4ppi5PfENyOAJdqSU3aVKSYJVOGICosgLVCnSu3xIJle08qG5rGij2nyKoJfKUfnhKHa4enKmuXaEjTaboAtAV2sh45HtdUdHEjgmb/Oxx2VG7/DdwVOT7xbWfUJFIh/rNImkibi1R8ZBh+OH24iA34w+1x4/WvD4vO1hQc9D6ufxOw89AV9aYRqegX33XKrjQUTUQPOGMnCavQH8JjrMpF8dJpKN1wPyz7XxalURz5++AqPQmPtdA3kFb8BlI9asLnTuUmyy8ExL0j0OYixe3+nvRhiDYE/urjF0qw7nCWstZwuAFw9nqBxe5b8YNWraH9GEJaJY3uunAGdcycvwPk9gU6O3x6XRXZcGS8gYqvH0bFuiWo+GwhKlbdhIoVs1G5bDoqPp6MSlosy2egasVMFH18DYqWz0XJmsUo/eJHqNjyuLDILAdehe30ajiLjsBtK+qQJU0agwpSoBpKm4sU0z8xGvNH9hXWjD+q7C68+c1RWBuZ3V1qteGlL/fBHuB9nOPzwOwRSE2QVlT9qKCNG4aoKc+JO3iBdFwIFXmWPH7NaS2BvewcbMWnUZV/BJbz+1GZswsV53aiPGsLyjI3w35uI+xZn8F2YimsR/8Fy+4/oXLb06jY9D8oXT0fhW8PR8FbI1G28SFUn/kMXFlT0rVpF5HiW5GLJw1CmMG/y8duwprD2bhY3riyKN+ezENBeaChOipE6LV45PpxouyExB8qmEfci6hrX4PGnAQN+X6tYXPyryQW+ufyYj0P57F/ofSzW1G8epEo/+u3PIuk09MuIsXMGdoHaUEsGbo44x8beYCisiEInNH65jcZYuiKX6izTeyXJGaD6aw4nJ4GJTY2BPPAWxF3505oU+cB+khf/SRSq9YQrEvw7803UD1OGxzn1sO2ajaq9r9MG0Kkil17Qienqwl2u4mUllr6s4umilIu/vC4nXjn26PILKw5w4h/juYV4YujgQvohel1uGXcQPAcYp2Vimp7CxYdU0ET2Qtx81cgfvFXCJvxd+h6Xw+VLgx6OoWXC7+xcClLS8KCVVlZgcpvHkPZVz+D11m/Ze3hsXKtqZxtgLisBDmBXp6Jx9ayQ8dCnXYTKQ5YzxjYE2N6J9CK/90oqbI3KIDuJuvppQ37UO0MHMNKS4rB3VOGKGuSBsMj/BPGIGL0A+g29wMk/uA4om/fgYjr3kZY+nMwjfoJDGm3wZB6M8L6zEF0v1lXLVF9ZyCy1ySEp4yDOWkYDNG9oNGZwInIwfSFy+aKksCnVypbauPVRXZ0jRKjN9RhnOwcmK52V7DdRIoxk1WzcGyaiHf4g+2BZXtP4WJ54PpGe89exLen86k1B3L1NLh70kDxvZImQmLFVSzV4T2gS5oI89B7EDHxSUTP/hti532E2IWrEH3LlwhbsOmqJXzh14i45RtE3vIVIuatRcQNHyJ85kvQ9Fnkm/BT+Qp/eEmo7Blv0m9cz4WopU249oBNqQAX7K5Ku54RblcsUv0SA4wBI3t/0/E8kUEeCJ5yJ788UPKmCokReiwY2/qTKkoCwGWFdeHQRvaEIXkywkf8CLHzP0Z4+rNQ64zKi+qH+7Cn/AzsBVcPQlfT50o6J+0u2zxX112TBuHyzBP1oCKhevnLA8ra1RRV2rB6/2khaIH4/pTh6B0bOiP3JVcIH/0QNLGjuJJvQHh2Ya4nXheVMZbe2/GtqWAGIdenUHlaKt7YMQgJ2/LOSYMRw1OB+IN88D3nivDVsavH4rEusRWVWVQZUKRiwgy4ZfyAgK5lZ4HH7QXR69CDLCFdcjp0wVokJ3nWUwWAJ35oEG1wYprcwtjV00YoK/XDzddTXaysdQ1CQqR6xETg4WtHB/x1C8mV+79NB0R1g5pY7A68tHE/PAFiUSq1BpP6dcdoDtK3Ms0t9dIS8KzSPDSoo6EJSwhqSbid1WJ24rpwnahg4sC/DNdx4otea+J12+m7gnyHSkPHWnuPufywRh/Y0hfvcDvbRGxDhZAQKYNOI5I7Y4xcctV/U/vqWDby6wTQP9hxDGfZigqA1mDAc7cETndoKUxGrlfUvqeVhTwUxLKxqPVRQUVKrdX5JkCog4anpgpmJftUis5N/QLiqsgSk6GWLrsGxR/PqbWULKW/K24Ss7lYDr4hprHyfeDVeN0Ov9/B8DG6VYErwPpDHILIFwstl4+P10OuuO3oOyj78gGUfHY7yrf8Ao68bbSrzStNFBIixaQlxmBSWspVV5fLUKcrsTrxn2+OXB7hz8mb7247GthqIMG4aXB3pCV1Uza0LtFmQ9C4SkklZ8RL6qJqgDWkUhug0l6diMv11hsyDtPjKCc1qj/XShvRC6aR98NxYS+cuZvgyLmy2Hk9ay3sR/8Jx7c/RsF/BsN2dj21y3rEqAFlWOotFkn7r1IHGIVxCRbBoPP7tR1insaMd1H2/ig4v7kXVYf/CXvmF7DtfxHOtdeheNV3ldlxmkbIiBTXL/rjbdMRFeE/E5zHh724fj9ySyuFpbA78wJ2ny0SAuYPM1lpP5wxEmE89W0bYNRqg3QWL86VVIq8LkltfFNhKSt+EFNJ1VP+VxueEtSS4lbi5uoMdj/ld8kFM/b5DqIXrCTRSxLNiqMLNReuo26rtsNddR6ln96Gip2/u8pS8NhKAooIH6PKGEf7U6f7sQsYnhxQ4HifxISk9bi87YGX3OfK7c/CsuFHcDnJwhv5v4i7ZR1iF29CzM2r4exzN5w561H8yTVwFh9T3tU4QkakmKE94jC9Xzz9WP53q8xajXe+zSDryYM/rt0dtJzLsJ7xoiJoW5ESFSbmpPMLNbLNJ86J/ZfUxlN1MWCaG6PWmaCup7Y6zwas5bneA8Ed3JITMGObXXVDjxmIuuF96GKHimz6+hBiQS6fbddvUbrxx6I0zSVcldn0ZACRokWtj6BmfvWHa8MSrxavOniqSQRDpISw7fQqOPY+C1VUXxiH3w9n0WFYj/wblt1/hqP0BCIm/oLO5QfQeSpRtvZOOvdkVDSSkBIp5r6Zo2Ak68cvHjdWHsjEm98exuaTubTuv1Xr6XPunzkc5iYWgG8KCdEkUgFjUl6sOXAWxVWt5/JZ7S643NSLOhBcmoXrUQWbLUxrioE67OrZozVkgTg9gYc68RnReW1ipuFg49+MvWYh+qb3oe02NKB15yTrwcWDob/4vnBpOB7lyN9NFpf/UjP8eWpRovnq/eX68l6N2a81xdYcbAWwZX0R9BhaG75BULXreTihR8z1b4nJYXU5y+AqyYC77CTc2x8RdcZM/edDN/JncBYegu3UcuXdDSfkRGrmoJ6YMySw5XPo3EU89M6mwFMYUUsYkBiNu9OHKhvaBnZb40yBTyuPrbvv3+sbXYamofDkpR3JneQ56IpXLYQ9ex2CGZiasO7QRtWtpkpojHBFDAsoKAzpN7knv4WdhCoYuvgRiFn4GVQm/3eF+evYKq7OWouit4eh6L1J1HH/JHL7/MFeKce/2L2ri8YYS9ZUfMDj4BSTqq8fhO3If5Qt7YPjwg6gKhva5KniXPERq/XhCJ/6LOLu2AZjVA84Cg7BQxcgnt1ZGxYLT8FO35sbAZ3LAGczCHmlFvR87N9k3/ofnd47MQ5Zf6g9530wPt1/BoteIX+2GZNwesmaefnuWXiQZ6hpBA+9/SVe+fqQfwuNrn6vf28OfjRjhLKhNtyAnlmxDc9+Sj9GgDs8PDtNv/hIEuTeGJoSh95xkdBSy4w0G5qdy7XnbD6eWbkDxZUBytxo9Tjw9B0YQe5wXWynlpHZflQ0upaCj0gUsuOrP1kbbmelLz5UngVV5Rm4XfaAaSQMjwk3Tf4dIsmFuAqvG5W7/gjL1id91kYQeGp4bcJY6OKGKVaNTvx2deECNZ6qPFQdpnZe33CcGohfjX7DYF1KawhHxLX/hHngYmXLFdg6KloxH65zn9P5CPI59Bt6w3rSMQz1zYFIAqHmad/ZQtOaWvT3YzioHznxCWWN9IlEsuLL+2Ee/RNEzfgTnf/n4dn7a3gH3guNuTuq9/0BxjE/Q/iEX9BpUaHkrQFQRw9E9IK1yic0jJAUqWqnCze8sAybT+X5F4sgjO6ThE8emofUuMYVtmuuSDHHzhfjpheX42xxBbW6AKeXL5f0eSoSM56fjK0wrrXV3Mzpagc1dBKogNZUAJGq+HwxnKeXBtz1xiJEqsbn8WNe5V1siGfKp0RFDTxu0XpoI+u3tDkwW7LsWrgr8xrUQbmCA4eFfOIiNl0Fb2atoFPaIvD3GfvciOi5H4nhQfXhyN+LstXz4ea5BIMcCJ+XS3Ezbk6XD8PP8TQHQ1g3RPzwSiJp1WESqU0kUqOuiJRjx5Nw67pBQ06gWxuN6JtXQJ84hn5sN4rfTIMmehCiFzZOpAL7Je0EF6P7xdwJosRvkyAravH4tEYLVEsxODkWz982Hd0jw3wtxx/cU90ucdeSrZ7CiirkFJcju7CsWcvFcktQd08Hd61ZcmriVWlhJ6OhJReeQ5ZdrUuLg4xkNpQbIlDiFBrjEcMF+CJ6+jbWgy52MMwj7if1MTaoj7JryeIj9qnO/l5aeL9bSqD4OLThyQif9LRfgWL0SWMRNuU5kTcWDBYxPo+8XD6WAMfTnMXpqd1edN0GkFUYJoLlbCXzT2kwRSDypqUwX/sejN5yWI99QDvphqv8rKh5z7HDxhKSIsWm4YR+yZiW1j1wJ/eDWuXF96YOU9bah9smDMSaRxbimiG9RAJiqCEqbTbh3LY1Rr2a3LLxiFv8NQw9ZwTdZ67IEDXzL9CQO9dMg7RF4X3x6qIQOW8ldN0nKFv9EzbkHkTe+D40enJLtaH5O+mSxgPmFDhyviIROkMeAe8nJxI7Yeo/F/ao0XCcXQsvufbVp1fCUVUCFf2WjSUkRYrhpMiHr6MrCuc3NbQz0et05C69+r1rEBvOGb3ty+jeieRyzsefbkkX6RV6Tk1g6/DyQqdf+BuXFjpOcayXltajGV5+q8MGHseftNF9oR//a8Tdup6spAbWAKPzGDb8R+h2xw7oyK3iW/08HrA9BYu/W5s0GQl37YYhaZyyNQh0HKbU6xG35Aj0g38IXVRvcV54aWh3aG04Zy1s7ONklTtQsmohWUqlcMRO9MXHiIjJv4TaEImqjPdg2/k0tDEDRKXXxqJ5hlAeN5rKagf+smG/MOf8ER1uxv+7dpSy1ji4QF2f2EgcyC5AmY3szYCRBhWiSNh+OW8S7p89CromVt5cezATu89e5F6sbKkDNZ55o/piTJ/gxckYHvIzOS0FN4/qh2kDe2BC3wQM6h4j7jymxkWgd0wkEiKMiDYZEWXSw0CtkBuiSU9evdtDR6y0Sr8LfUndbQ0QuAijHvfNGlmvmNtPL4ez8LCy1nTEntTYrboLd95a63SoXo2R3J10hI36CcKn/AamtIVQkfvWKOg30oQlwjzoDui7p5P/FAG3vQLe6mJfJ+eXiH98f2st4gNaFv5ObfIUEs976TtopaHQDqmNMTD1uxn63tdBEz0QHuprzio6Dq/dd13zvezyctUxiQ9qGXQGM0wkSjXRxqSJu+xsMXksF+jCcAO0kX1EKobXXgJ3dQWsB16CSh+JbnOXQhsVeAKW+mhW4Lygwor5r66DKkB2bVxkGFY/eKOy1nh47zjDfNmuE/hg90lcrLShvMoGa7VTCFGk2Yi4CDMm9onHT78zDgNIALTc2pvIc6t3YE1Gnghm14eXLKBH5wzDLeOaVpeKTzeLj5v+ctxIBI75L63zD8F3dHzBUn7eNwaPVyttDjipgfLvW2F1oMrhpMcq2B1ulHLOFW33krnNcS3OaH9n+zE6T/5zdVJiwrH5F7ejb8LVtbws3z4Gb+6XPp2mz1VzJrTGv8ta7dbCozbV7hBqrehg9ID23wsND3nRkSDyMdF/Kr4LRc/zXTW1KZYsnmhoI1LEIGNow+m9HI9pXGP2B+fz8DTsnHzJk5mKgLStSGzjxEj+rd30l38MzqD2OMsV14V/Bdp3j5UuHrXbg9frhsfl+w0clRfhtJyn30t5sh7UGi30qXMR851/K+elCdB+chKnx2n17X/VBbhtxXR81fBY6a/XRUJcRsfhEOPoPHxDi7uCvYyOy//NLUb8Ji4rTDr/B6HSh8F889WzVnvp+yy7XoDrxJtwlJ8jMaO2wHdLXXYR9zN2HwvT1Begj+ciAo3/TZslUvzOhnxnQ18XDO7IB88VILOgHOfLLAgna6A/dbKRPePFrfu2hE9bqMZ0zhZW4Lo/L8fpfP/ZvQOTumHdY4vQq776WkKgazSLevJ5JNwG2IMgkTq/HWUb7oOn9Ji4yPiDLUfT4HsQOfMvQpg7IoHavbsiG1UnP4G7KINE0QqNORH65MkwsjVcz6DwhtIskZKEJnlkeV7zwnKcyPM3/EOFqQNSsPTBeZ161py2grsQD7UpXnYDXIWBZzfi/m3stxAxN75DlmUnPfd8keOFL24tcCFvul8kCVl4YlVnoNRtajeclyXnHWwZ2LLQmBMQt/BTmNMWINCoLhYwR+YqMZ+g199A544OB8u4CGELeRpSpDohaw6cxvnSwB2gT3wkzG1UGaKroA5PRsSsf0A34A6oAwwy5xikI3sdKj6/A656SiFLaiNFqhPBMbsT+SV4d1sGqgMNKaKr+eDucdKSagU4WTFqzqvQD7yLDAq939QHdhGtmWtRtv5eMXZR4h8Zk2ph+GwGs3Kd7itVCthV4BmX+a6cx8/dLBu5b0WWqsuf66XXlVh8JYL570V6b2GFVQjUsbxi5NPjQBhJnNb//FZMTeuhbJG0OB4X7Dlfi6EjjvPfwl11EWE6+2VXkNtJuU0t4lJho/4HUdOebzH3qLMhRaqF4aqhE59bikoSFZfXA6fq6kJunFdS97TXrd1eEx54W2vwLX2g2+0WDd1D38Gfxy6E7zNoCfCTcp7OhNQEbHridpjasIRNV0UUp+MUAbowqegyVPN3FwOB6fdgi0tlaJ8hXB0BKVItjJ1EqtfP30JhcYmyJYQgcYuPMGH9Y4swsmfrT0ohkbQEMibVFSBxYrdydO8kfHj/XClQkg6FFKlODrsU3cxG/PiaMVjz8ALMClJQUCIJNaRIdVK4hDEPzl4yeRD2/PpuvHD7DHSPkYmbko6HjEm1ME2JSXF1BGOdIDaPpTLpdfQcX0dU4v9Iow5qTpRT4Nvb4SY9PaUSOU9mej3P1BwXZhSDs2cM7Im+8VHQis+QSDomUqQkEklIIy+xEokkpJEiJZFIQhopUhKJJKSRIiWRSEIaKVISiSSkkSIlkUhCGilSEokkhAH+P2cOuMhmtjyhAAAAAElFTkSuQmCC;" vertex="1" parent="1">
          <mxGeometry x="125.00335367838571" y="498.9966666666668" width="297" height="153" as="geometry" />
        </mxCell>
        <mxCell id="PHb7f1i5PLg08WZEu7bd-5" value="" style="endArrow=classic;startArrow=classic;html=1;rounded=0;exitX=0.5;exitY=0;exitDx=0;exitDy=0;entryX=0.5;entryY=1;entryDx=0;entryDy=0;strokeWidth=3;" edge="1" parent="1" source="PHb7f1i5PLg08WZEu7bd-4" target="PHb7f1i5PLg08WZEu7bd-1">
          <mxGeometry width="50" height="50" relative="1" as="geometry">
            <mxPoint x="325" y="398" as="sourcePoint" />
            <mxPoint x="375" y="348" as="targetPoint" />
          </mxGeometry>
        </mxCell>
      </root>
    </mxGraphModel>
  </diagram>
</mxfile>
